<svg xmlns="http://www.w3.org/2000/svg" viewBox="0 0 277.8 456.71">
    <defs>
        <style>
            .cls-1 {
                fill: #ed1e79;
            }
            .cls-2 {
                fill: #fcee21;
            }
            .cls-3 {
                fill: #c1272d;
            }
            .cls-4 {
                fill: #0071bc;
            }
            .cls-5 {
                fill: #93278f;
            }
            .cls-6 {
                fill: #39b54a;
            }
            .cls-7 {
                fill: #f5f7e6;
            }
            .cls-8 {
                fill: #aaaa9b;
            }
            .cls-9 {
                fill: #1a1a1a;
            }
            .cls-10 {
                fill: #5b5b59;
            }
            .cls-11 {
                fill: #333332;
            }
            .cls-12 {
                fill: #293747;
            }
            .cls-13 {
                fill: #1c2838;
            }
            .cls-14 {
                fill: #8a8c99;
            }
            .cls-15 {
                fill: #eae9e9;
            }
            .cls-16 {
                fill: #141e28;
            }
            .cls-17 {
                fill: #272727;
            }
            .cls-18 {
                fill: #dfe1de;
            }
            .cls-19 {
                fill: #161616;
            }
            .cls-20 {
                fill: #333;
            }
            .cls-21 {
                fill: #666;
            }
            .cls-22 {
                fill: #f4faf7;
            }
            .cls-23 {
                fill: #999;
            }
            .cls-24 {
                fill: #b3b3b3;
            }
            .cls-25 {
                fill: gray;
            }
            .cls-26 {
                fill: #e6e6e6;
            }
            .cls-27 {
                fill: #4d4d4d;
            }
            .cls-28,
            .cls-29,
            .cls-30,
            .cls-31,
            .cls-32,
            .cls-33 {
                fill: none;
                stroke-miterlimit: 10;
                stroke-width: 1.5px;
            }
            .cls-28 {
                stroke: #fcee21;
            }
            .cls-29 {
                stroke: #c1272d;
            }
            .cls-30 {
                stroke: #662d91;
            }
            .cls-31 {
                stroke: #0071bc;
            }
            .cls-32 {
                stroke: #ed1e79;
            }
            .cls-33 {
                stroke: #39b54a;
            }
        </style>
    </defs>
    <title>FAMILIA-CHICA</title>
    <g id="Capa_1" data-name="Capa 1">
        <circle class="cls-1" cx="26.29" cy="424.13" r="16.29" />
        <circle class="cls-2" cx="17.58" cy="177.18" r="16.29" />
        <circle class="cls-3" cx="17.27" cy="344" r="16.29" />
        <circle class="cls-4" cx="18.28" cy="106.72" r="16.29" />
        <circle class="cls-5" cx="24.03" cy="259.52" r="16.29" />
        <circle class="cls-6" cx="16.29" cy="20.4" r="16.29" />
        <path
            class="cls-7"
            d="M139.19,339.4s-1.71,2.46.76,2.63,7.58-1.61,8.82-1.79,7.94.51,12.35-.21a72.42,72.42,0,0,1,10.76-.55s18.58-.26,25.94-1.66c8.18-1.55,19.59-2.69,19.59-2.69s14.43-.76,20.82.47c4.8.93,8.48,3.16,11.83,2.09A28.85,28.85,0,0,1,255.2,343c1.77,2.64,6,2.63,6,2.63s-4.42-3-3.72-5.11-2-3.52-2-3.87.35-1.06.71-1.06-2.65-.53-3.36.36c0,0-2.83-4.58-6.54-5.81s-32.42-8.29-34.53-8.64-14.18-4.08-22.12-4.23-15.57,0-20.86,1.77-14.46,5.33-17.45,8.17a7.08,7.08,0,0,1-2.83,1.49c-1.59.36-6.86,5.41-7.56,7.18S140.15,338.51,139.19,339.4Z"
            transform="translate(-129.94 -316.39)"
        />
        <path
            class="cls-8"
            d="M177.22,333c1.06,0,2.77,1.32,3.3,2a5,5,0,0,0,2.24,1.12c1.09.32,3.5-.16,1.56.9s-9.7,1.05-12,0a13.28,13.28,0,0,0-4.15-1.09,15.37,15.37,0,0,0,1.88-1.23,6.13,6.13,0,0,1,2.61-.57,8,8,0,0,0,2.55-.47c.28-.2.94-.71.94-.71h1.07"
            transform="translate(-129.94 -316.39)"
        />
        <path
            class="cls-8"
            d="M247.9,334.32a9.57,9.57,0,0,0,2.79,3.89,16.13,16.13,0,0,1,3.66,3.63,9,9,0,0,0,2.26,2.49,8.15,8.15,0,0,0,4.59,1.27s-3.55-2.45-3.77-4.34a1.42,1.42,0,0,1,.05-.77,2.24,2.24,0,0,0-.19-1.86,6.74,6.74,0,0,0-1.42-1.62s-.4-.33-.33-.48a1.64,1.64,0,0,1,.54-.93.32.32,0,0,1,.16,0c.06,0,0,0-.08,0a7.77,7.77,0,0,0-2-.09c-.7.12-.86.09-1.27.49Z"
            transform="translate(-129.94 -316.39)"
        />
        <path
            class="cls-9"
            d="M160.67,336.42s6,.16,7.76-1.43,5.29-1.61,6-1.78a20.07,20.07,0,0,0,6-3.9c1.93-2.13,8.28-5.67,11.63-6.21,2.27-.36,9.53-1.26,13.77,0s25.6,6.11,28.07,6.28,9.27,2.65,10.11,2.91,2.34,1.31,3.9,2.06c.94.46,4.42,1.58,5.31,2.11,0,0-2.93-5.08-7-6.41-10.25-3.39-36.67-10.27-42.86-11.49-5.5-1.08-15.32-3.49-28.48-1.15-10.51,1.87-20.89,7.21-23,9.17s-2.53,1.46-4.17,2.38a23.11,23.11,0,0,0-4.31,3.74s2.58-.5,4.13.6a16.26,16.26,0,0,0,3.76,2,12.15,12.15,0,0,0,3.66,1.14Z"
            transform="translate(-129.94 -316.39)"
        />
        <path class="cls-9" d="M176.47,333.46l.13.13a3.68,3.68,0,0,0,.85.7,10.07,10.07,0,0,0,2.48,1.24,7,7,0,0,0,1.17.22c.36,0-1.62-2-2.39-2.39a4.44,4.44,0,0,0-2.2-.46.73.73,0,0,0-.49.23Z" transform="translate(-129.94 -316.39)" />
        <path
            class="cls-8"
            d="M152.9,337.26a10.8,10.8,0,0,0-5.11-1.16c-2.55.2-3.25,0-5.78,1a15.06,15.06,0,0,0-2,1.13,5.44,5.44,0,0,1-.64.84,2.6,2.6,0,0,0-.55.8,3.09,3.09,0,0,0-.19.65,6.18,6.18,0,0,0,3.29-.09,38.16,38.16,0,0,0,4.77-1.84,6,6,0,0,1,2.61-1C149.93,337.58,152.9,337.26,152.9,337.26Z"
            transform="translate(-129.94 -316.39)"
        />
        <path class="cls-10" d="M154.51,334.21s.19.86.63,1a1.4,1.4,0,0,0,1,0,1.8,1.8,0,0,0,.64-.75A19.26,19.26,0,0,0,154.51,334.21Z" transform="translate(-129.94 -316.39)" />
        <path class="cls-9" d="M155.38,334.16a.53.53,0,0,0-.17.71c.23.45.9.14,1,0s.11-.53,0-.65S155.38,334.16,155.38,334.16Z" transform="translate(-129.94 -316.39)" />
        <path class="cls-11" d="M153.86,333.74a1.82,1.82,0,0,1,1.72-.78c1.22.09,1.37.58,1.61,1s.61,1.16.12.87a3.71,3.71,0,0,0-3.26-.28C152.91,335.13,153.86,333.74,153.86,333.74Z" transform="translate(-129.94 -316.39)" />
        <path
            class="cls-12"
            d="M257.6,508a97.61,97.61,0,0,1,7.83,8.2c1.78,2.41,11.41,12,15.09,12.68s2.67-1.1,0-3.35-6-6.84-6-8.68-1.6-1.59-1.18-2.17,1.16-3.69,3.34-3.78.16-1.67-2.1-2a27,27,0,0,0-8,.36C265.08,509.69,257.6,508,257.6,508Z"
            transform="translate(-129.94 -316.39)"
        />
        <path
            class="cls-13"
            d="M231.32,479s-5.07,4.75,1.29,7,20.58,8.92,25.89,13.48,9.9,11.39,12.52,14.4-8.36-4.95-10.71-5.11,3.56,5.26,3.56,5.26-9-1.66-13.43-3-19.67-4.41-23-4.12-49.67-.7-49.67-.7-17.3-2.79-21.45-4.84-18.73-5-18.73-5-1.29-1.08,1-3.1,15.14-13.57,31.25-14.09,37.82.05,41.27-.88,14.48-7.25,19.55-5.42S231.32,479,231.32,479Z"
            transform="translate(-129.94 -316.39)"
        />
        <path class="cls-14" d="M151.87,484.08s-4,.67-14,9.86c0,0,0,1,7-1.64s7-1.58,7-5.77S151.87,484.08,151.87,484.08Z" transform="translate(-129.94 -316.39)" />
        <path class="cls-12" d="M137,495.9s10-1.19,13.09-3.3,3.43-3.78,5.12-3.7,5,1.06,4.14,3.1a7.66,7.66,0,0,1-4.71,3.85c-1.51.41-12.45,3.06-13,3.06S136.45,499.27,137,495.9Z" transform="translate(-129.94 -316.39)" />
        <path class="cls-13" d="M153.91,491.9s1.65-1.89,2.81-.4C156.72,491.5,156.3,493.68,153.91,491.9Z" transform="translate(-129.94 -316.39)" />
        <circle class="cls-9" cx="25.34" cy="175.32" r="0.31" />
        <path class="cls-15" d="M161.82,503.42s1.12-3.68-4-5.5-14.88-.89-16.29,0a1.21,1.21,0,0,0-.6.82c-.15.63,8.84.89,12,1.91S157.67,501.86,161.82,503.42Z" transform="translate(-129.94 -316.39)" />
        <path class="cls-15" d="M163.59,493.87a17.16,17.16,0,0,1-3.22-1.54c-.33-.44-1.13.35-.47.77A11.18,11.18,0,0,0,163.59,493.87Z" transform="translate(-129.94 -316.39)" />
        <path class="cls-15" d="M169.49,501.64s2.94-.74,3.88,0,1.37,1.88.46,2.27S169.49,501.64,169.49,501.64Z" transform="translate(-129.94 -316.39)" />
        <path class="cls-15" d="M184.86,507.38s28.09,1.54,41.79.57c0,0,8.63-.35,12.63.57s-5.42-6-24.22-4.89-17.94,1.34-25.76,1-13.69.07-15,1.58S184.86,507.38,184.86,507.38Z" transform="translate(-129.94 -316.39)" />
        <path
            class="cls-13"
            d="M215.65,506.4a60.83,60.83,0,0,1,8.09-.61c2.45.16,12,1.36,13.53,2,.77.33,2.08.09,2.86.52s1.35-.53,1.35-.53-14.75-2.53-16.73-2.74-5.44-.74-8,.28S214.43,507,215.65,506.4Z"
            transform="translate(-129.94 -316.39)"
        />
        <path class="cls-13" d="M217.64,507.2s5.35-.65,6.48,0,.77.92.77.92l-8.43.17C216.25,508.27,216,507.79,217.64,507.2Z" transform="translate(-129.94 -316.39)" />
        <path class="cls-16" d="M163.07,502.65s4.35,5.23,5.78,7.17,9.19,7.22,11.84,6.89,3.81-2.86,1.73-4.28-9.8-10.89-12.93-11.66S163.07,502.65,163.07,502.65Z" transform="translate(-129.94 -316.39)" />
        <path class="cls-15" d="M164.41,502.89s5.12,7.16,6.86,8.46a38.76,38.76,0,0,0,7,4.08c1,.25-5.2-3-6.91-5s-5.86-7.41-6.08-7.91S164,502.29,164.41,502.89Z" transform="translate(-129.94 -316.39)" />
        <path
            class="cls-17"
            d="M147.37,574.08s4-4.63,8.19-6.15S166.71,564,166.71,564a123.07,123.07,0,0,1,26.21-6.92s5.93-3.65,9.42-6.26a6.38,6.38,0,0,1,8.21,0c1.8,1.32.1,1.8,0,3.5s.2,3.68,5.49,4.75,35.79,7.24,41.72,10.74,5.09,3.3,6.69,2.28,6.3-3,5.55-1.59.73,2.92.09,3.3.23.35.4.7,3.07,5.59,5.84,6.68,2.37,1.49-.28,1.9-10.91-4.18-11.9-6.37-18.62,2.81-23.87,3-24,3.94-27.47,4.48-30.32,1.53-33.09,1.32-18.06-1.69-20-2.66-16.25-2.78-14.93-6Z"
            transform="translate(-129.94 -316.39)"
        />
        <path
            class="cls-18"
            d="M159.79,566.4s10.84-3.77,14.69-5.16,8.46-2.55,12.28-2,14.85,4.28,21,4.35,15.94-.72,22.56,1.3,10.61,2.52,9.43,5.74,1.45,3.48,2,3.82-.42,1.52,0,2,1.58,2.37.2,2.88-8.08,0-9.86.79-.09-2,1-2.12-1-1-3,.52-.43-1.19.33-1.45-.08-1.18-2.79.94-5.85,3.24-8.13,4.35-14.58,3.43-23.06,2.86S179.87,584.82,180,583s1.77-2.12-.6-2.71-5.85,1.37-10.52-2.26S157.35,570.2,159.79,566.4Z"
            transform="translate(-129.94 -316.39)"
        />
        <path class="cls-18" d="M148.05,579.56s14.73,4.57,19.72,4.56c0,0,1.34-1.22-1.8-2.3S149.64,576.61,148.05,579.56Z" transform="translate(-129.94 -316.39)" />
        <path class="cls-19" d="M170.05,582.26s7.11-.47,11,3.16,5,5.79,5,6.91-5.33,1.7-7.3,0S171,585.16,170.05,582.26Z" transform="translate(-129.94 -316.39)" />
        <path
            class="cls-20"
            d="M164.46,643.24s16-3.12,25.93-3.38,16-4,20.59-8.34,9.8-8.8,12.65-8.81,6-.83,2.14,5.22-4.48,7.59-1,10.89,11.15,5.78,13.88,6.6S257,648.79,263,656.48c0,0,.74,5.88,4.9,3s15.87-2.12,15.87-2.12,1.41-.27.34,1.88-2.21,4.17-3.55,4.92-.2.9.47,1.42,1.89,4.46,3.11,5.31,5,3-.94,3.21-14.73-3.2-18.77-7.22-8.08-4.48-9.09-3.94-13.37,5.08-20.29,5.7-20.77,0-23.8.13-56.06-.47-56.06-.47l-2.3,1S140.32,667.2,138.8,666s-3.6-2.27,0-6.34,9.76-11.24,13.39-13S164.46,643.24,164.46,643.24Z"
            transform="translate(-129.94 -316.39)"
        />
        <path class="cls-21" d="M149.71,663s2,2.14,3.79,2.14,2,1.28.71,2.07a8.84,8.84,0,0,0-2.24,2s9.21,1.41,11.46,1.71,8.39.9,10.23.9S156.9,663,156.9,663A12.56,12.56,0,0,0,149.71,663Z" transform="translate(-129.94 -316.39)" />
        <path class="cls-9" d="M142.36,655.59s4.57,2.64,5,3.49c.32.61-1.35.44-1.35.44l-5.5-1.61A16.82,16.82,0,0,1,142.36,655.59Z" transform="translate(-129.94 -316.39)" />
        <path
            class="cls-22"
            d="M176.41,667.93l5.53,3.26s16.56-1,21.87-2.2,14.39-.14,14.39-.14a18.15,18.15,0,0,1,7.29-1c3.48.4,9.2-1.46,10.11-3.09s-.62-2.53-3.38-2.48a32.87,32.87,0,0,0-14,2.53c-6.71,2.77-30.86-4.23-30.86-4.23Z"
            transform="translate(-129.94 -316.39)"
        />
        <path
            class="cls-23"
            d="M154.39,662.36s2.32-.65,2.32-1.42-1.56-5.8,3.07-8.13,12.49-4.67,24.22-1.87,12.9,2.93,22.19,9,12,4.86,12,4.86-20.09,4.44-25.76,4.58-7.67-.18-6.13-.91-.38-1.29-2.22-1.19a27,27,0,0,0-4,.6,12.84,12.84,0,0,1,4.68,6.34,12.82,12.82,0,0,0,5.42,7.63c2,1.21,3.05,2.77-1.54,2.78s-19.57-14.36-21.81-16S157.48,662.47,154.39,662.36Z"
            transform="translate(-129.94 -316.39)"
        />
        <path class="cls-9" d="M154.19,658.52a2.76,2.76,0,0,0,4,0S156.72,656.25,154.19,658.52Z" transform="translate(-129.94 -316.39)" />
        <ellipse class="cls-23" cx="155.57" cy="658.37" rx="0.38" ry="0.25" transform="translate(-131.63 -315.99) rotate(-0.15)" />
        <path
            class="cls-24"
            d="M208.07,645.06a49.61,49.61,0,0,1,11.14,5.59c6,4,17.1,9,21.73,8.32s13.1-3.34,17.4-2.47a11.22,11.22,0,0,1,6.31,3.39,19.62,19.62,0,0,0-1.36-3,10.16,10.16,0,0,0-3.53-3.15A21.7,21.7,0,0,0,249.18,651c-5.4-.2-17.74-.06-23-2.25s-14.67-6.35-19.52-6.34a40.59,40.59,0,0,0-9.95,1.08c-1.37.42-3.52,1.8.21.87S208.07,645.06,208.07,645.06Z"
            transform="translate(-129.94 -316.39)"
        />
        <path class="cls-21" d="M137.19,661.9s7.83-1.62,9.78-2.2c2.49-.73-5.8-2.7-5.8-2.7A23.82,23.82,0,0,0,137.19,661.9Z" transform="translate(-129.94 -316.39)" />
        <path
            class="cls-24"
            d="M262.85,426.23a9.38,9.38,0,0,1,5.28.42A70.61,70.61,0,0,0,277,429c1.33.16,2.19,1.81,0,1,0,0-.69-.21-1.81,1.08s-1.64,1.39-2,1.39-1,.16-.37,1,.54,3.25.65,4.26,2.89,3.46,3.58,3.88,1.93,1.81-.79.86-7-5.05-8.6-5.95-6.14-4.57-7.05-7.12-.76-3.39-.76-3.39Z"
            transform="translate(-129.94 -316.39)"
        />
        <path
            class="cls-25"
            d="M210.24,425.08s6.36-3.2,19.7.43c0,0,10.26,1,15.17,2.16s13.35,3.16,15.87,2.63a7.84,7.84,0,0,1-.46-3.27c.22-1.41,7,2.77,8,3.34s-5.18-5.32-6.79-6.95S251.3,414.09,244,412.06c0,0-5.47-2.9-7.77-4.32s-15.15-7.17-18.42-7.75-34.47,1-34.47,1L154,411.4l-1.63.39s-4,2.17-5.85,4.76-2.3,2.22-2.06,4.49a2.1,2.1,0,0,1-1,1.83c-1.05.6.27,1.46.27,1.46l19.52,1.39s6.86.23,10.45.3,13.71-6.4,13.71-6.4Z"
            transform="translate(-129.94 -316.39)"
        />
        <path class="cls-21" d="M219,400.3s-5.88-1-7.41-4.09-1.85-6.12-.65-8.78,2.89-5-2.1-3-7.74,7.29-10.18,9.07-4,3.18-8.52,4.16,1.53,1.86,1.53,1.86l27.59,2.21Z" transform="translate(-129.94 -316.39)" />
        <ellipse class="cls-21" cx="159.85" cy="418.1" rx="2.35" ry="1.33" transform="matrix(1, 0, 0, 1, -131.01, -315.98)" />
        <path d="M158.54,418.43a1.73,1.73,0,0,1,2.1-.72c1.56.38-.46.93-.79,1A1.86,1.86,0,0,1,158.54,418.43Z" transform="translate(-129.94 -316.39)" />
        <ellipse class="cls-26" cx="159.45" cy="418.29" rx="0.26" ry="0.32" transform="translate(-131.01 -315.98) rotate(-0.15)" />
        <path class="cls-27" d="M142.18,426.1s-.87-1.93.26-2.63a15.36,15.36,0,0,1,6.46-2.32c2.43-.07,4.47-.68,5.3-.54s1.16.19.83.59-7.39,3.89-7.39,3.89Z" transform="translate(-129.94 -316.39)" />
        <path
            class="cls-26"
            d="M142.42,426.51s-1.13-1.35,1-1.47,6.61-1.06,9.47-3.23,8.31-1.57,9.24-3,1.35,1.59,2.55,2.32a9.44,9.44,0,0,0,3.64,1.31c.86,0,1.48,1.61,1,2.62s-12.22.46-14.39,1S144.51,428.44,142.42,426.51Z"
            transform="translate(-129.94 -316.39)"
        />
        <path
            class="cls-26"
            d="M165.53,418.67a36.64,36.64,0,0,1,4.41,4.2c1.11,1.5,11.11,4.5,21.78,3.65s8.31.52,14.44-.58,9.71-2.75,15.68-2.35,13.49.8,9.56-1.32-15.3-4.45-20.93-3.71-19.95-1-24.93-.66-15.18,1.78-17,.77C165.46,417,164.05,418.28,165.53,418.67Z"
            transform="translate(-129.94 -316.39)"
        />
        <path class="cls-27" d="M151.71,412.25s3.46.8,13.2-4.42,32.71-6.55,35.71-6.32,13,.08,19.28,1.45,2.42-2.32-3.36-3.22-19.74-3.76-23.09-2.83-16.8,3.27-24,6.52S154.71,410.05,151.71,412.25Z" transform="translate(-129.94 -316.39)" />
        <path
            class="cls-25"
            d="M177,421.71a20.69,20.69,0,0,1-5.27-1.15c-2.45-.9-5.08-1.1.8,5.58a59.3,59.3,0,0,0,10.71,8.73c1.56.83,4.81,2.3,7.37,2.37s.08-1.22-.84-1.59-5.81-5.6-5.86-9C183.86,423,179.86,422,177,421.71Z"
            transform="translate(-129.94 -316.39)"
        />
        <path
            class="cls-20"
            d="M172.25,730.88s21-3.75,22.82-7,3.93-12.4,4.17-21c0,0,2.25-9.22,3.55-5.91s2.1,8,4.25,11,2.23,10.31,4.38,13.88,2.8,4.21,15.33,5.28,28.66,7.38,33.51,9.47,8,3.51,12.07,5.6,13.33,7.48,13.33,7.48L279.2,749a26.63,26.63,0,0,1-9.73,1.64c-5.3-.17-27.3.18-31.51.77s-19.67,2.83-20.78,3.08-6.16.33-6.16.33l-7.39,1.25-13,.62-8.78,0-18.47-8.49-13.44-5.51a1.62,1.62,0,0,1-1.05-2c.43-1.47,3.77-5,5.77-6.33s7-1.41,8.62-1.66S172.25,730.88,172.25,730.88Z"
            transform="translate(-129.94 -316.39)"
        />
        <path
            class="cls-26"
            d="M183.85,757.15s20.85.71,35-3c0,0,7.93-1.29,10.46-1.46s-2.61-.42-3-.92,0-1.44,2.78-2.29,6.49-2.63,10.63-3.4,2-3.08-3.39-4.4-11.48.8-13.58,2.41-5.81,7.11-9.09,9-11.31,3.16-16.45,3.08-13-.22-14.44-.63S183.85,757.15,183.85,757.15Z"
            transform="translate(-129.94 -316.39)"
        />
        <path class="cls-26" d="M157.93,737.6s3.09-2.17,5.89-1.3,4.58,2.6,1.78,3.39a12.49,12.49,0,0,1-7.27-.27C157.34,738.88,156.67,738.3,157.93,737.6Z" transform="translate(-129.94 -316.39)" />
        <path class="cls-26" d="M150.76,742s7.23-.31,8.36,0a5,5,0,0,1,2.46,1.27c1,.83,8.18,5.73,8.91,6.32s.71,5.11.71,5.11-16.68-5.46-21-11c0,0-1.8-1.61-.63-1.66Z" transform="translate(-129.94 -316.39)" />
        <path class="cls-9" d="M169.3,747.22s8.51,4.65,10.65,4.26,5.67,2.2,6.29,5.34.1,11.33-2.19,14.24-6.49,3.23-10.41-2.5-6.46-12.46-5.64-18.35C168,750.21,168.1,747.26,169.3,747.22Z" transform="translate(-129.94 -316.39)" />
        <path
            class="cls-21"
            d="M213.05,724.16s1.35,2,10.23,2.44c0,0-.07,1.12-3.66,1.49s-5.91,6.14-7,8-5.13,4.31-7.82,3.19-4.38-5.06-5.37-5.77-1.41-1.68.42-.63,2.83,3.44,3.89,3.51,2.46-.85,2.67-3.11.27-5.71,3.43-7.41Z"
            transform="translate(-129.94 -316.39)"
        />
        <path class="cls-26" d="M272.19,750.67a16.49,16.49,0,0,0,5.53-1.34c2.17-1.14-5.54-2.3-5.54-2.3A4.33,4.33,0,0,0,272.19,750.67Z" transform="translate(-129.94 -316.39)" />
        <path class="cls-27" d="M272.21,746.15s6.65-.11,8.77.59,6.75,1.45,8.07,3,1.47,2.31,2.56,3.53,3.07,1.88.62,1.79-10.43-3-13-4.47S269.23,745.78,272.21,746.15Z" transform="translate(-129.94 -316.39)" />
        <path
            class="cls-28"
            d="M336.83,482.39s-8.37,32-8.37,35.29-3.48,1.82-1.39,11.65,6.27,20.37,4.53,25.83-2.27,10.73-1.22,25.29,1.4,13.46-.35,25.47-1.74,12.73-3.48,21.1,3.83,22.19,5.23,28.38,8.36,19.65,12.55,27.65,6.27,19.65,15,22.92,24.4,8.74,33.82,7.65a113,113,0,0,0,12.2-1.82"
            transform="translate(-129.94 -316.39)"
        />
        <path
            class="cls-29"
            d="M327,554c-1.83,5.72-2.38,11.25-1.28,26.52s1.46,14.12-.37,26.71-1.82,13.35-3.65,22.13,4,23.28,5.48,29.76,8.78,20.61,13.17,29,6.58,20.61,15.72,24,25.59,9.16,35.47,8A95.94,95.94,0,0,0,406,717.62"
            transform="translate(-129.94 -316.39)"
        />
        <path class="cls-30" d="M321,652.13c2.64,8.6,2.79,7.64,4.53,14.19s7.37,18.64,11.79,27.08,6.62,20.74,15.82,24.19,25.75,9.22,35.68,8.06a152.47,152.47,0,0,0,18.29-3.3" transform="translate(-129.94 -316.39)" />
        <path
            class="cls-31"
            d="M316.43,652.85c-1.46-6.5-4.25-14.23-2.42-23s1.84-9.57,3.67-22.2,1.47-11.48.37-26.8-.55-20.86,1.28-26.6-2.57-16.84-4.77-27.18,1.47-8.8,1.47-12.25c0-2.34,4.06-18.63,6.67-28.84a34.35,34.35,0,0,0,.17-16.19c-1.41-6.13-3-14.17-2.6-17.75.7-6.18,4.88-30.2,4.53-35.66s1.4-26.92,0-32.74,2.79-18.92,1.75-23.29-4.19-20-6.63-25.83"
            transform="translate(-129.94 -316.39)"
        />
        <path
            class="cls-32"
            d="M314.34,334.85c2.44,5.82,5.58,21.47,6.63,25.84s-3.14,17.46-1.75,23.28-.34,27.29,0,32.75-3.83,29.47-4.53,35.65c-.4,3.59,1.19,11.62,2.6,17.75a34.39,34.39,0,0,1-.17,16.2c-2.61,10.21-6.67,26.5-6.67,28.84,0,3.44-3.67,1.91-1.47,12.25s6.61,21.43,4.77,27.17-2.38,11.3-1.28,26.61,1.47,14.16-.37,26.79-1.83,13.4-3.67,22.2,1,16.53,2.43,23c0,0,5.57,15.28,10.46,25.47s10.8,21.46,12.9,27.65,9.41,17.83,13.59,19.28S377.45,734,381.28,734s22.32-3.64,25.8-5.09"
            transform="translate(-129.94 -316.39)"
        />
        <path
            class="cls-33"
            d="M309.73,336c2.69,5.93,5.41,18.25,6.56,22.7s-3.4,17.81-1.86,23.74-.33,27.83.07,33.39-4.15,30.06-4.9,36.37c-.43,3.65,1.33,11.84,2.9,18.08a32.68,32.68,0,0,1-.17,16.52c-2.83,10.41-7.25,27-7.25,29.42,0,3.51-4,2-1.58,12.49s7.29,21.84,5.29,27.7-2.59,11.52-1.35,27.13,1.64,14.44-.35,27.32-2,13.67-4,22.65,1.08,16.84,2.7,23.47c0,0,6.15,15.57,11.52,26s11.9,21.86,14.21,28.16,10.36,18.15,14.95,19.63,32.52,8.46,36.72,8.45,20.42-3.83,24.25-5.33"
            transform="translate(-129.94 -316.39)"
        />
    </g>
</svg>
