<svg xmlns="http://www.w3.org/2000/svg" viewBox="0 0 667.6 475.49">
    <defs>
        <style>
            .cls-1 {
                fill: #ed1e79;
            }
            .cls-2 {
                fill: #fcee21;
            }
            .cls-3 {
                fill: #c1272d;
            }
            .cls-4 {
                fill: #0071bc;
            }
            .cls-5 {
                fill: #93278f;
            }
            .cls-6 {
                fill: #39b54a;
            }
            .cls-7 {
                fill: #3b3b3b;
            }
            .cls-8 {
                fill: #f5f9d8;
            }
            .cls-9 {
                fill: #2b2b2b;
            }
            .cls-10 {
                fill: #474747;
            }
            .cls-11 {
                fill: #666;
            }
            .cls-12 {
                fill: #1a1a1a;
            }
            .cls-13 {
                fill: #f5f7e6;
            }
            .cls-14 {
                fill: #aaaa9b;
            }
            .cls-15 {
                fill: #5b5b59;
            }
            .cls-16 {
                fill: #333332;
            }
            .cls-17 {
                fill: #293747;
            }
            .cls-18 {
                fill: #1c2838;
            }
            .cls-19 {
                fill: #8a8c99;
            }
            .cls-20 {
                fill: #eae9e9;
            }
            .cls-21 {
                fill: #141e28;
            }
            .cls-22 {
                fill: #272727;
            }
            .cls-23 {
                fill: #dfe1de;
            }
            .cls-24 {
                fill: #161616;
            }
            .cls-25 {
                fill: #333;
            }
            .cls-26 {
                fill: #f4faf7;
            }
            .cls-27 {
                fill: #999;
            }
            .cls-28 {
                fill: #b3b3b3;
            }
            .cls-29 {
                fill: gray;
            }
            .cls-30 {
                fill: #e6e6e6;
            }
            .cls-31 {
                fill: #4d4d4d;
            }
            .cls-32,
            .cls-33,
            .cls-34,
            .cls-35,
            .cls-36,
            .cls-37 {
                fill: none;
                stroke-miterlimit: 10;
                stroke-width: 2px;
            }
            .cls-32 {
                stroke: #fcee21;
            }
            .cls-33 {
                stroke: #c1272d;
            }
            .cls-34 {
                stroke: #662d91;
            }
            .cls-35 {
                stroke: #0071bc;
            }
            .cls-36 {
                stroke: #ed1e79;
            }
            .cls-37 {
                stroke: #39b54a;
            }
        </style>
    </defs>
    <title>FAMILIA-GRANDE</title>
    <g id="Capa_1" data-name="Capa 1">
        <circle class="cls-1" cx="368.99" cy="424.71" r="18.5" />
        <circle class="cls-2" cx="164.97" cy="420.24" r="18.5" />
        <circle class="cls-3" cx="358.76" cy="333.74" r="18.5" />
        <circle class="cls-4" cx="165.76" cy="340.23" r="18.5" />
        <circle class="cls-5" cx="375.52" cy="236.7" r="18.5" />
        <circle class="cls-6" cx="163.51" cy="242.24" r="18.5" />
        <path
            class="cls-7"
            d="M128.56,345.5s-14.87,4.91-22.12,4.93-15-.38-19.24-1.82S57.73,345.43,48,346.67s-14.22,1.71-16.22,1.94a22.42,22.42,0,0,0-9.8,3.14c-3.72,2.41-3.94,2.87-5.45,3.23s-2.39,1.81-1.16,2.3,3.12,0,6.46,1.49,16.78,4.75,18.62,5.69,20.1,3.48,28.25,3,30.86-2.59,43.08-8.24,10.37-5.49,13.87-7.06a19.08,19.08,0,0,0,5.89-4.31,78.13,78.13,0,0,0,9.78-.85c4.08-.71,4.07-2.54,2.82-1.89s-4.56.23-6-.27-3.15-1.16-3.85-.8,0-.17-.2-.61-2.62-2.12-2.3-3.53,1.18-3.16-.51-1.73S128.7,342,128.56,345.5Z"
            transform="translate(-14.76 -118.51)"
        />
        <path
            class="cls-8"
            d="M50.33,361.22s6.08.52,9.25,2.7,5.16,3.53,10.56,3.23,18.13-1.9,22.21-3,13.21-4.7,16.76-5.58,6.75-1.73,7.68-1.87-.29.49-2.24,1.41A96.38,96.38,0,0,1,92,365c-11.56,2-25.62,3.3-33.86,2.3s-15.33-2.17-16.29-2.43.32-1.08,1.29-1.33S49.56,361.85,50.33,361.22Z"
            transform="translate(-14.76 -118.51)"
        />
        <path
            class="cls-9"
            d="M51.06,360.11a3.82,3.82,0,0,0,2.25,1c1.23,0,3,.3,3.39,2.54s1.4,4.39,2.83,5.08S63,369.83,61,370.42s-6.09-.74-8.75-2.71-5.18-4.19-5.07-6a1,1,0,0,0,0-.62C47.11,360.71,51.06,360.11,51.06,360.11Z"
            transform="translate(-14.76 -118.51)"
        />
        <path class="cls-8" d="M17.52,356.37s.9.62.39,1.3l-1.44-.15s-1.45-1.19-.58-1.15S17.52,356.37,17.52,356.37Z" transform="translate(-14.76 -118.51)" />
        <path
            class="cls-10"
            d="M27.26,355.94s-1.46-.68-5.27,0a31.32,31.32,0,0,1-7.2.42A1.92,1.92,0,0,1,16.5,355c1.55-.31,3.65-.38,5.29-.74a6.28,6.28,0,0,1,3.91.21c.81.42,2.61,1.11,3.08.76a2.47,2.47,0,0,1,2.38-.41s.07,1.58-2.43.79Z"
            transform="translate(-14.76 -118.51)"
        />
        <path
            class="cls-11"
            d="M131.51,347.86a3.92,3.92,0,0,0,1.65-3s-1-.89-4.6.64c0,0-.12-3.6,1-5.55s1.68-2.41,2.33-2.61.54.52.07,1.68a3,3,0,0,0,.79,3.11c.62.42,1.51,1.13,1.29,1.73s-.11.2.4.11a6.72,6.72,0,0,1,4.32.55,9.5,9.5,0,0,0,5.05.71c.28-.11,2.41-.93,1.15.26a7.69,7.69,0,0,1-4.46,2.41C138,348.47,132.66,347.63,131.51,347.86Z"
            transform="translate(-14.76 -118.51)"
        />
        <path class="cls-9" d="M29.16,355.43a1,1,0,0,0,1.05.36c.79-.11.82-.56.95-1a2,2,0,0,0-1.74,0A.58.58,0,0,0,29.16,355.43Z" transform="translate(-14.76 -118.51)" />
        <ellipse class="cls-12" cx="30.21" cy="355.22" rx="0.51" ry="0.47" transform="translate(-15.67 -118.44) rotate(-0.15)" />
        <path
            class="cls-13"
            d="M170.27,363.71s-1.94,2.79.86,3,8.61-1.83,10-2,9,.57,14-.24a82,82,0,0,1,12.22-.63s21.1-.29,29.45-1.88c9.29-1.77,22.24-3.06,22.24-3.06s16.38-.87,23.64.54c5.44,1.05,9.63,3.58,13.43,2.37a32.24,32.24,0,0,1,5.83,6c2,3,6.82,3,6.82,3s-5-3.39-4.23-5.8-2.21-4-2.21-4.4.4-1.2.8-1.21-3-.59-3.81.41c0,0-3.22-5.2-7.43-6.59s-36.8-9.41-39.2-9.81-16.09-4.63-25.11-4.8-17.68,0-23.68,2-16.42,6.06-19.82,9.27a8,8,0,0,1-3.21,1.7c-1.8.4-7.79,6.14-8.58,8.15S171.36,362.7,170.27,363.71Z"
            transform="translate(-14.76 -118.51)"
        />
        <path
            class="cls-14"
            d="M213.45,356.46c1.21,0,3.14,1.5,3.75,2.3a5.77,5.77,0,0,0,2.54,1.27c1.23.36,4-.18,1.77,1s-11,1.19-13.62,0a15.24,15.24,0,0,0-4.72-1.24,17.87,17.87,0,0,0,2.14-1.4c.52-.48,2.48-.62,3-.64a9.33,9.33,0,0,0,2.9-.54c.31-.22,1.07-.8,1.07-.8h1.21"
            transform="translate(-14.76 -118.51)"
        />
        <path
            class="cls-14"
            d="M293.69,358a10.78,10.78,0,0,0,3.17,4.4,18.56,18.56,0,0,1,4.15,4.12,10.3,10.3,0,0,0,2.58,2.84,9.28,9.28,0,0,0,5.21,1.44s-4-2.79-4.28-4.93a1.58,1.58,0,0,1,.05-.87,2.52,2.52,0,0,0-.22-2.12,7.42,7.42,0,0,0-1.61-1.83s-.45-.38-.37-.55a1.84,1.84,0,0,1,.61-1.06.5.5,0,0,1,.18-.05c.07,0,0,0-.09,0a8.78,8.78,0,0,0-2.28-.1c-.8.14-1,.11-1.44.55Z"
            transform="translate(-14.76 -118.51)"
        />
        <path
            class="cls-12"
            d="M194.66,360.32s6.81.19,8.81-1.62,6-1.82,6.81-2a22.64,22.64,0,0,0,6.8-4.43c2.2-2.41,9.4-6.43,13.21-7.05,2.57-.41,10.81-1.43,15.63,0s29.07,6.94,31.87,7.14,10.52,3,11.48,3.3,2.65,1.49,4.42,2.35c1.07.51,5,1.79,6,2.39,0,0-3.33-5.77-7.9-7.28-11.63-3.85-41.63-11.66-48.66-13-6.24-1.23-17.39-4-32.33-1.31-11.93,2.12-23.73,8.19-26.07,10.41s-2.87,1.66-4.73,2.71a25.47,25.47,0,0,0-4.89,4.24s2.92-.57,4.68.69a18.63,18.63,0,0,0,4.27,2.28,13.77,13.77,0,0,0,4.16,1.3Z"
            transform="translate(-14.76 -118.51)"
        />
        <path class="cls-12" d="M212.6,357l.15.14a4,4,0,0,0,1,.8,12.3,12.3,0,0,0,2.81,1.41,8.06,8.06,0,0,0,1.34.25c.4,0-1.85-2.25-2.72-2.71a4.92,4.92,0,0,0-2.5-.53.8.8,0,0,0-.55.26Z" transform="translate(-14.76 -118.51)" />
        <path
            class="cls-14"
            d="M185.84,361.28A12.36,12.36,0,0,0,180,360c-2.88.23-3.68,0-6.56,1.2a16.31,16.31,0,0,0-2.23,1.28,6,6,0,0,1-.73.95,3,3,0,0,0-.62.91,3.27,3.27,0,0,0-.22.73,7,7,0,0,0,3.74-.09,45.11,45.11,0,0,0,5.42-2.09,6.59,6.59,0,0,1,3-1.17C182.46,361.64,185.84,361.28,185.84,361.28Z"
            transform="translate(-14.76 -118.51)"
        />
        <path class="cls-15" d="M187.66,357.82s.22,1,.72,1.14a1.66,1.66,0,0,0,1.1,0,2.11,2.11,0,0,0,.72-.85A22.66,22.66,0,0,0,187.66,357.82Z" transform="translate(-14.76 -118.51)" />
        <path class="cls-12" d="M188.66,357.76a.6.6,0,0,0-.2.8c.26.52,1,.17,1.09,0s.13-.6,0-.74S188.66,357.76,188.66,357.76Z" transform="translate(-14.76 -118.51)" />
        <path class="cls-16" d="M186.93,357.28a2,2,0,0,1,1.95-.88c1.38.11,1.56.65,1.83,1.16s.69,1.31.13,1a4.16,4.16,0,0,0-3.69-.32C185.85,358.86,186.93,357.28,186.93,357.28Z" transform="translate(-14.76 -118.51)" />
        <path
            class="cls-17"
            d="M304.71,555.14s6.61,6.23,8.89,9.31c2,2.73,12.95,13.64,17.13,14.39s3-1.24,0-3.8-6.86-7.77-6.87-9.86-1.8-1.8-1.33-2.47,1.32-4.18,3.79-4.28.18-1.9-2.38-2.27a30.82,30.82,0,0,0-9.12.4C313.2,557,304.71,555.14,304.71,555.14Z"
            transform="translate(-14.76 -118.51)"
        />
        <path
            class="cls-18"
            d="M274.87,522.22s-5.76,5.38,1.47,7.95,23.36,10.13,29.39,15.3S317,558.4,319.94,561.82s-9.49-5.61-12.16-5.8,4,6,4,6-10.16-1.88-15.24-3.44-22.33-5-26.11-4.68-56.39-.8-56.39-.8-19.63-3.17-24.35-5.5-21.26-5.66-21.26-5.66-1.47-1.23,1.14-3.52,17.19-15.41,35.48-16,42.94.05,46.86-1,16.44-8.23,22.2-6.15S274.87,522.22,274.87,522.22Z"
            transform="translate(-14.76 -118.51)"
        />
        <path class="cls-19" d="M184.66,528s-4.57.76-15.9,11.19c0,0,0,1.14,8-1.86s7.91-1.8,7.95-6.55S184.66,528,184.66,528Z" transform="translate(-14.76 -118.51)" />
        <path class="cls-17" d="M167.75,541.38s11.3-1.35,14.86-3.74,3.89-4.29,5.8-4.2,5.69,1.2,4.71,3.51a8.74,8.74,0,0,1-5.35,4.38c-1.71.47-14.13,3.47-14.79,3.48S167.16,545.22,167.75,541.38Z" transform="translate(-14.76 -118.51)" />
        <path class="cls-18" d="M187,536.85s1.88-2.15,3.2-.46C190.18,536.39,189.7,538.87,187,536.85Z" transform="translate(-14.76 -118.51)" />
        <circle class="cls-12" cx="173.78" cy="418.12" r="0.36" />
        <path class="cls-20" d="M196,549.92s1.27-4.17-4.56-6.24-16.9-1-18.49.05a1.34,1.34,0,0,0-.69.93c-.16.71,10.05,1,13.66,2.16S191.26,548.16,196,549.92Z" transform="translate(-14.76 -118.51)" />
        <path class="cls-20" d="M198,539.08s-3.28-1.25-3.65-1.75-1.28.4-.54.88A12.77,12.77,0,0,0,198,539.08Z" transform="translate(-14.76 -118.51)" />
        <path class="cls-20" d="M204.68,547.91s3.33-.85,4.4,0,1.55,2.14.52,2.58S204.68,547.91,204.68,547.91Z" transform="translate(-14.76 -118.51)" />
        <path class="cls-20" d="M222.13,554.42s31.88,1.75,47.44.64c0,0,9.79-.39,14.34.66s-6.15-6.8-27.5-5.56-20.37,1.52-29.25,1.13-15.53.07-17,1.79S222.13,554.42,222.13,554.42Z" transform="translate(-14.76 -118.51)" />
        <path
            class="cls-18"
            d="M257.09,553.31a67.51,67.51,0,0,1,9.18-.69c2.77.18,13.67,1.54,15.36,2.25.87.38,2.36.1,3.24.6s1.54-.61,1.54-.61-16.75-2.87-19-3.11-6.17-.84-9.08.31S255.7,553.94,257.09,553.31Z"
            transform="translate(-14.76 -118.51)"
        />
        <path class="cls-18" d="M259.34,554.21s6.07-.73,7.36,0,.87,1,.87,1l-9.57.2C257.76,555.43,257.47,554.89,259.34,554.21Z" transform="translate(-14.76 -118.51)" />
        <path class="cls-21" d="M197.39,549.05s4.93,5.94,6.55,8.14,10.44,8.19,13.45,7.82,4.32-3.24,2-4.85-11.13-12.37-14.68-13.24S197.39,549.05,197.39,549.05Z" transform="translate(-14.76 -118.51)" />
        <path class="cls-20" d="M198.91,549.32s5.81,8.13,7.78,9.61,6.77,4.34,7.92,4.63-5.9-3.44-7.85-5.73-6.66-8.41-6.9-9S198.41,548.64,198.91,549.32Z" transform="translate(-14.76 -118.51)" />
        <path
            class="cls-22"
            d="M382.78,353.13s4.5-5.26,9.3-7,12.66-4.47,12.66-4.47a139.94,139.94,0,0,1,29.75-7.86s6.74-4.14,10.7-7.1a7.24,7.24,0,0,1,9.33,0c2,1.49.11,2,0,4s.22,4.18,6.23,5.39,40.63,8.22,47.36,12.19,5.78,3.75,7.59,2.6,7.16-3.41,6.31-1.81.83,3.31.1,3.74.26.41.46.8,3.48,6.34,6.63,7.58,2.69,1.7-.32,2.16-12.39-4.75-13.51-7.23-21.14,3.19-27.1,3.35-27.28,4.48-31.19,5.08-34.42,1.75-37.57,1.5-20.5-1.92-22.76-3-18.45-3.16-16.95-6.76Z"
            transform="translate(-14.76 -118.51)"
        />
        <path
            class="cls-23"
            d="M396.88,344.41s12.31-4.28,16.68-5.86,9.61-2.89,13.94-2.23,16.86,4.87,23.89,4.95,18.1-.82,25.62,1.47,12,2.86,10.7,6.52,1.65,3.95,2.32,4.33-.48,1.73,0,2.31,1.78,2.69.22,3.27-9.17,0-11.19.9-.1-2.22,1.15-2.41-1.16-1.16-3.37.58-.48-1.34.38-1.63-.1-1.35-3.17,1.06-6.63,3.68-9.23,4.94-16.55,3.89-26.18,3.24-19-.53-18.78-2.65,2-2.41-.68-3.08-6.64,1.56-11.95-2.56S394.12,348.73,396.88,344.41Z"
            transform="translate(-14.76 -118.51)"
        />
        <path class="cls-23" d="M383.55,359.35s16.73,5.19,22.39,5.18c0,0,1.53-1.39-2-2.61S385.36,356,383.55,359.35Z" transform="translate(-14.76 -118.51)" />
        <path class="cls-24" d="M408.54,362.42s8.07-.54,12.43,3.59,5.65,6.56,5.65,7.84-6.05,1.92-8.28,0S409.61,365.71,408.54,362.42Z" transform="translate(-14.76 -118.51)" />
        <path
            class="cls-25"
            d="M393.11,432.78s18.14-3.54,29.43-3.84,18.14-4.48,23.37-9.47,11.14-10,14.36-10,6.86-1,2.44,5.92-5.09,8.61-1.18,12.37,12.66,6.55,15.75,7.49,20.82,3.82,27.72,12.55c0,0,.84,6.68,5.57,3.46s18-2.41,18-2.41,1.61-.31.39,2.13-2.51,4.74-4,5.59-.23,1,.54,1.61,2.15,5.06,3.53,6,5.73,3.4-1.06,3.64-16.73-3.63-21.32-8.19-9.17-5.09-10.32-4.47-15.17,5.76-23,6.47-23.59,0-27,.14-63.65-.53-63.65-.53L380,462.45s-14.29-2.46-16-3.84-4.08-2.58,0-7.19,11.08-12.77,15.2-14.73S393.11,432.78,393.11,432.78Z"
            transform="translate(-14.76 -118.51)"
        />
        <path class="cls-11" d="M376.35,455.21s2.33,2.43,4.3,2.42,2.32,1.46.82,2.36a10,10,0,0,0-2.54,2.29s10.45,1.6,13,1.94,9.52,1,11.61,1-19-10.05-19-10.05A14.14,14.14,0,0,0,376.35,455.21Z" transform="translate(-14.76 -118.51)" />
        <path class="cls-12" d="M368,446.81s5.18,3,5.69,3.95c.36.69-1.53.51-1.53.51l-6.24-1.83A18,18,0,0,1,368,446.81Z" transform="translate(-14.76 -118.51)" />
        <path
            class="cls-26"
            d="M406.67,460.82l6.28,3.7s18.8-1.1,24.83-2.5,16.33-.16,16.33-.16a20.53,20.53,0,0,1,8.28-1.18c3.95.45,10.44-1.66,11.48-3.52s-.7-2.86-3.83-2.81a37.36,37.36,0,0,0-15.94,2.88c-7.61,3.14-35-4.8-35-4.8Z"
            transform="translate(-14.76 -118.51)"
        />
        <path
            class="cls-27"
            d="M381.67,454.49s2.64-.74,2.63-1.62-1.77-6.58,3.49-9.22,14.18-5.31,27.5-2.12,14.64,3.33,25.19,10.17,13.62,5.53,13.62,5.53-22.81,5-29.25,5.19-8.7-.2-7-1-.44-1.46-2.52-1.35a30.23,30.23,0,0,0-4.5.68,14.6,14.6,0,0,1,5.31,7.2,14.57,14.57,0,0,0,6.16,8.66c2.31,1.37,3.46,3.15-1.75,3.16s-22.22-16.3-24.76-18.21S385.18,454.62,381.67,454.49Z"
            transform="translate(-14.76 -118.51)"
        />
        <path class="cls-12" d="M381.44,450.13a3.14,3.14,0,0,0,4.51,0S384.31,447.56,381.44,450.13Z" transform="translate(-14.76 -118.51)" />
        <ellipse class="cls-27" cx="383.01" cy="449.96" rx="0.43" ry="0.29" transform="matrix(1, 0, 0, 1, -15.91, -117.53)" />
        <path
            class="cls-28"
            d="M442.61,434.85a56,56,0,0,1,12.65,6.35c6.77,4.48,19.42,10.2,24.67,9.44s14.87-3.79,19.75-2.8a12.73,12.73,0,0,1,7.17,3.85,21.65,21.65,0,0,0-1.55-3.42,11.3,11.3,0,0,0-4-3.57c-2.61-1.45-5.89-2.86-12-3.09s-20.14-.07-26.15-2.56-16.66-7.21-22.16-7.2a46.16,46.16,0,0,0-11.29,1.23c-1.57.47-4,2,.23,1S442.61,434.85,442.61,434.85Z"
            transform="translate(-14.76 -118.51)"
        />
        <path class="cls-11" d="M362.14,454s8.89-1.84,11.11-2.5c2.83-.83-6.58-3.06-6.58-3.06A26.48,26.48,0,0,0,362.14,454Z" transform="translate(-14.76 -118.51)" />
        <path
            class="cls-28"
            d="M310.67,462.29a10.61,10.61,0,0,1,6,.47,80.76,80.76,0,0,0,10,2.7c1.51.18,2.49,2.05,0,1.15,0,0-.78-.24-2,1.21s-1.87,1.58-2.3,1.58-1.15.19-.42,1.15.62,3.69.74,4.84,3.28,3.93,4.07,4.41,2.18,2.05-.91,1S317.9,475,316.08,474s-7-5.19-8-8.09-.85-3.84-.85-3.84Z"
            transform="translate(-14.76 -118.51)"
        />
        <path
            class="cls-29"
            d="M250.94,461s7.22-3.63,22.37.49c0,0,11.64,1.13,17.22,2.45s15.15,3.6,18,3a8.92,8.92,0,0,1-.53-3.72c.26-1.6,7.93,3.16,9,3.8s-5.89-6-7.71-7.89-11.8-10.6-20.08-12.9c0,0-6.21-3.29-8.82-4.9s-17.19-8.14-20.9-8.8-39.14,1.17-39.14,1.17L187.1,445.45l-1.85.44s-4.51,2.47-6.64,5.41-2.61,2.52-2.34,5.09a2.4,2.4,0,0,1-1.12,2.09c-1.19.67.32,1.66.32,1.66l22.15,1.57s7.79.26,11.87.34,15.56-7.27,15.56-7.27Z"
            transform="translate(-14.76 -118.51)"
        />
        <path class="cls-11" d="M260.86,432.86s-6.68-1.14-8.41-4.65-2.1-7-.74-10,3.29-5.68-2.38-3.37-8.79,8.28-11.56,10.29-4.6,3.61-9.67,4.72,1.74,2.12,1.74,2.12l31.31,2.51Z" transform="translate(-14.76 -118.51)" />
        <ellipse class="cls-11" cx="193.73" cy="453.06" rx="2.67" ry="1.5" transform="translate(-15.92 -118.02) rotate(-0.15)" />
        <path d="M192.24,453.44a2,2,0,0,1,2.39-.83c1.77.44-.52,1.06-.9,1.09A2.14,2.14,0,0,1,192.24,453.44Z" transform="translate(-14.76 -118.51)" />
        <ellipse class="cls-30" cx="193.27" cy="453.27" rx="0.3" ry="0.36" transform="translate(-15.92 -118.02) rotate(-0.15)" />
        <path class="cls-31" d="M173.67,462.14s-1-2.19.29-3,4.58-2.54,7.34-2.63,5.08-.77,6-.62,1.33.23.95.68-8.39,4.41-8.39,4.41Z" transform="translate(-14.76 -118.51)" />
        <path
            class="cls-30"
            d="M173.94,462.61s-1.28-1.53,1.14-1.67,7.5-1.21,10.75-3.67,9.43-1.78,10.48-3.41,1.54,1.79,2.91,2.63a10.48,10.48,0,0,0,4.13,1.48c1,0,1.67,1.84,1.11,3s-13.88.52-16.34,1.19S176.32,464.8,173.94,462.61Z"
            transform="translate(-14.76 -118.51)"
        />
        <path
            class="cls-30"
            d="M200.18,453.71a41.65,41.65,0,0,1,5,4.76c1.26,1.71,12.62,5.11,24.74,4.15s9.42.59,16.38-.66,11-3.12,17.81-2.67,15.31.92,10.85-1.5-17.36-5.05-23.76-4.21-22.65-1.1-28.3-.75-17.24,2-19.37.87C200.1,451.85,198.5,453.26,200.18,453.71Z"
            transform="translate(-14.76 -118.51)"
        />
        <path class="cls-31" d="M184.49,446.42s3.93.91,15-5S236.61,434,240,434.22s14.8.09,21.88,1.65,2.75-2.63-3.81-3.66-22.41-4.27-26.21-3.21-19.08,3.72-27.28,7.41S187.89,443.92,184.49,446.42Z" transform="translate(-14.76 -118.51)" />
        <path
            class="cls-29"
            d="M213.21,457.16a24,24,0,0,1-6-1.31c-2.78-1-5.77-1.25.91,6.34a66.78,66.78,0,0,0,12.16,9.9c1.77,1,5.45,2.62,8.37,2.7s.09-1.38-1-1.81-6.59-6.35-6.66-10.17C221,458.64,216.44,457.47,213.21,457.16Z"
            transform="translate(-14.76 -118.51)"
        />
        <path
            class="cls-25"
            d="M402,532.28s23.86-4.26,25.91-7.95,4.46-14.08,4.73-23.8c0,0,2.55-10.47,4-6.72s2.38,9.13,4.82,12.44S444,518,446.42,522s3.18,4.78,17.4,6,32.54,8.38,38.05,10.75,9.08,4,13.7,6.36,15.14,8.49,15.14,8.49l-7.34-.7a30,30,0,0,1-11,1.86c-6-.19-31,.2-35.78.88s-22.34,3.21-23.59,3.49-7,.38-7,.38l-8.39,1.42-14.75.7-10,0-21-9.64-15.27-6.26a1.83,1.83,0,0,1-1.18-2.24c.48-1.67,4.28-5.67,6.54-7.18s7.89-1.61,9.79-1.89S402,532.28,402,532.28Z"
            transform="translate(-14.76 -118.51)"
        />
        <path
            class="cls-30"
            d="M415.12,562.11s23.67.8,39.76-3.46c0,0,9-1.46,11.87-1.66s-3-.47-3.45-1,0-1.63,3.16-2.6,7.37-3,12.06-3.86,2.29-3.49-3.84-5-13,.91-15.42,2.74-6.6,8.06-10.33,10.18-12.83,3.58-18.67,3.5-14.76-.25-16.39-.73S415.12,562.11,415.12,562.11Z"
            transform="translate(-14.76 -118.51)"
        />
        <path class="cls-30" d="M385.69,539.91s3.51-2.47,6.69-1.47,5.2,2.94,2,3.85a14.18,14.18,0,0,1-8.26-.32C385,541.36,384.25,540.71,385.69,539.91Z" transform="translate(-14.76 -118.51)" />
        <path class="cls-30" d="M377.55,544.9s8.21-.36,9.49,0a5.59,5.59,0,0,1,2.79,1.45c1.18.94,9.28,6.5,10.12,7.17s.8,5.8.8,5.8-18.93-6.2-23.81-12.44c0,0-2-1.83-.71-1.89Z" transform="translate(-14.76 -118.51)" />
        <path class="cls-12" d="M398.59,550.83s9.66,5.28,12.1,4.84,6.43,2.5,7.14,6.06.12,12.86-2.48,16.17-7.38,3.67-11.83-2.84-7.33-14.14-6.39-20.84C397.13,554.22,397.23,550.88,398.59,550.83Z" transform="translate(-14.76 -118.51)" />
        <path
            class="cls-11"
            d="M448.27,524.65s1.53,2.23,11.61,2.77c0,0-.08,1.28-4.16,1.69s-6.7,7-7.9,9.06-5.82,4.9-8.87,3.62-5-5.74-6.1-6.54-1.6-1.92.48-.72,3.21,3.91,4.41,4,2.8-1,3-3.53.31-6.48,3.9-8.41Z"
            transform="translate(-14.76 -118.51)"
        />
        <path class="cls-30" d="M515.41,554.75a18.53,18.53,0,0,0,6.28-1.52c2.46-1.3-6.3-2.62-6.3-2.62A5,5,0,0,0,515.41,554.75Z" transform="translate(-14.76 -118.51)" />
        <path class="cls-31" d="M515.43,549.62s7.55-.12,10,.67,7.66,1.64,9.16,3.46,1.67,2.62,2.91,4,3.48,2.13.7,2-11.84-3.39-14.79-5.07S512.06,549.2,515.43,549.62Z" transform="translate(-14.76 -118.51)" />
        <path
            class="cls-32"
            d="M599.26,292.16s-9.81,37.51-9.81,41.34-4.08,2.13-1.63,13.64,7.35,23.87,5.31,30.26S590.48,390,591.7,407s1.63,15.78-.41,29.84-2,14.92-4.08,24.72,4.49,26,6.12,33.25,9.81,23,14.71,32.39,7.35,23,17.56,26.85,28.59,10.23,39.62,8.95,14.29-2.13,14.29-2.13"
            transform="translate(-14.76 -118.51)"
        />
        <path
            class="cls-33"
            d="M587.69,376c-2.14,6.7-2.78,13.18-1.49,31.06s1.71,16.54-.43,31.29-2.14,15.65-4.29,25.93,4.72,27.27,6.43,34.87,10.28,24.13,15.42,34,7.71,24.13,18.42,28.16,30,10.73,41.54,9.38,17-3,17-3"
            transform="translate(-14.76 -118.51)"
        />
        <path class="cls-34" d="M580.67,491c3.1,10.08,3.27,8.95,5.31,16.62s8.64,21.84,13.81,31.73,7.76,24.29,18.53,28.34,30.17,10.79,41.81,9.44a179.2,179.2,0,0,0,21.42-3.87" transform="translate(-14.76 -118.51)" />
        <path
            class="cls-35"
            d="M575.36,491.84c-1.71-7.62-5-16.66-2.83-27s2.14-11.21,4.29-26,1.72-13.45.43-31.38-.64-24.44,1.51-31.17-3-19.73-5.59-31.84,1.72-10.31,1.72-14.35c0-2.74,4.76-21.82,7.81-33.78a40.29,40.29,0,0,0,.21-19c-1.66-7.18-3.53-16.59-3-20.79.81-7.25,5.71-35.38,5.31-41.77s1.63-31.54,0-38.36,3.26-22.16,2-27.28-4.9-23.44-7.76-30.26"
            transform="translate(-14.76 -118.51)"
        />
        <path
            class="cls-36"
            d="M572.91,119.33c2.86,6.82,6.54,25.14,7.76,30.26s-3.67,20.46-2,27.28-.41,32,0,38.36-4.49,34.52-5.31,41.77c-.47,4.19,1.4,13.6,3,20.79a40.16,40.16,0,0,1-.21,19c-3,12-7.81,31-7.81,33.78,0,4-4.29,2.24-1.71,14.35s7.73,25.11,5.58,31.84-2.79,13.22-1.5,31.16,1.72,16.59-.43,31.39-2.15,15.69-4.3,26,1.12,19.36,2.84,27c0,0,6.53,17.9,12.25,29.83s12.66,25.15,15.11,32.4,11,20.88,15.93,22.59,34.72,9.8,39.21,9.8,26.14-4.26,30.22-6"
            transform="translate(-14.76 -118.51)"
        />
        <path
            class="cls-37"
            d="M567.52,120.72c3.14,6.94,6.32,21.37,7.68,26.58s-4,20.87-2.19,27.82-.38,32.6.09,39.11-4.86,35.21-5.74,42.6c-.51,4.28,1.56,13.88,3.39,21.19a38.22,38.22,0,0,1-.19,19.35c-3.32,12.2-8.5,31.67-8.49,34.46,0,4.12-4.71,2.3-1.86,14.64s8.54,25.58,6.2,32.44-3,13.5-1.59,31.78,1.92,16.92-.4,32-2.32,16-4.66,26.53,1.27,19.73,3.17,27.5c0,0,7.2,18.23,13.5,30.39s13.94,25.61,16.64,33,12.14,21.27,17.51,23,38.09,9.91,43,9.9,23.92-4.49,28.4-6.24"
            transform="translate(-14.76 -118.51)"
        />
    </g>
</svg>
