<svg id="Capa_1" data-name="Capa 1" xmlns="http://www.w3.org/2000/svg" viewBox="0 0 806 980.18">
    <defs>
        <style>
            .cls-1 {
                fill: #013851;
            }
            .cls-2 {
                fill: #ed1e79;
            }
            .cls-3 {
                fill: #fcee21;
            }
            .cls-4 {
                fill: #c1272d;
            }
            .cls-5 {
                fill: #0071bc;
            }
            .cls-6 {
                fill: #93278f;
            }
            .cls-7 {
                fill: #39b54a;
            }
            .cls-8 {
                fill: #f5f7e6;
            }
            .cls-9 {
                fill: #aaaa9b;
            }
            .cls-10 {
                fill: #1a1a1a;
            }
            .cls-11 {
                fill: #5b5b59;
            }
            .cls-12 {
                fill: #333332;
            }
            .cls-13 {
                fill: #293747;
            }
            .cls-14 {
                fill: #1c2838;
            }
            .cls-15 {
                fill: #8a8c99;
            }
            .cls-16 {
                fill: #eae9e9;
            }
            .cls-17 {
                fill: #141e28;
            }
            .cls-18 {
                fill: #272727;
            }
            .cls-19 {
                fill: #dfe1de;
            }
            .cls-20 {
                fill: #161616;
            }
            .cls-21 {
                fill: #333;
            }
            .cls-22 {
                fill: #666;
            }
            .cls-23 {
                fill: #f4faf7;
            }
            .cls-24 {
                fill: #999;
            }
            .cls-25 {
                fill: #b3b3b3;
            }
            .cls-26 {
                fill: gray;
            }
            .cls-27 {
                fill: #e6e6e6;
            }
            .cls-28 {
                fill: #4d4d4d;
            }
            .cls-29,
            .cls-30,
            .cls-31,
            .cls-32,
            .cls-33,
            .cls-34 {
                fill: none;
                stroke-miterlimit: 10;
                stroke-width: 2px;
            }
            .cls-29 {
                stroke: #fcee21;
            }
            .cls-30 {
                stroke: #c1272d;
            }
            .cls-31 {
                stroke: #662d91;
            }
            .cls-32 {
                stroke: #0071bc;
            }
            .cls-33 {
                stroke: #ed1e79;
            }
            .cls-34 {
                stroke: #39b54a;
            }
            .cls-35 {
                font-size: 41px;
                fill: #fff;
                font-family: MyriadPro-Regular, Myriad Pro;
            }
        </style>
    </defs>
    <title>familia-1</title>
    <rect class="cls-1" width="806" height="980.18" />
    <circle class="cls-2" cx="435.5" cy="687.27" r="18.5" />
    <circle class="cls-3" cx="231.5" cy="677.27" r="18.5" />
    <circle class="cls-4" cx="425.5" cy="596.27" r="18.5" />
    <circle class="cls-5" cx="232.5" cy="597.27" r="18.5" />
    <circle class="cls-6" cx="442.5" cy="501.27" r="18.5" />
    <circle class="cls-7" cx="230.5" cy="499.27" r="18.5" />
    <path
        class="cls-8"
        d="M222.49,494s-2,2.8.86,3,8.61-1.81,10-2,9,.6,14-.2a81.68,81.68,0,0,1,12.22-.6s21.1-.23,29.46-1.8c9.28-1.74,22.24-3,22.24-3s16.39-.82,23.64.6c5.44,1.07,9.62,3.61,13.43,2.41a32.48,32.48,0,0,1,5.81,6c2,3,6.81,3,6.81,3s-5-3.4-4.21-5.81-2.2-4-2.2-4.4.4-1.21.8-1.21-3-.6-3.81.4c0,0-3.2-5.21-7.41-6.61s-36.78-9.51-39.18-9.91-16.08-4.67-25.1-4.87-17.67,0-23.68,2-16.43,6-19.84,9.22a8.07,8.07,0,0,1-3.22,1.68c-1.8.4-7.8,6.13-8.6,8.13S223.58,493,222.49,494Z"
        transform="translate(0 8.23)"
    />
    <path
        class="cls-9"
        d="M265.69,486.83c1.2,0,3.14,1.51,3.74,2.31a5.82,5.82,0,0,0,2.54,1.28c1.23.36,4-.18,1.77,1s-11,1.16-13.63,0a15,15,0,0,0-4.71-1.25,17.77,17.77,0,0,0,2.15-1.4c.52-.48,2.48-.61,3-.64a9.23,9.23,0,0,0,2.89-.52c.32-.23,1.08-.81,1.08-.81h1.21"
        transform="translate(0 8.23)"
    />
    <path
        class="cls-9"
        d="M345.93,488.52a10.78,10.78,0,0,0,3.16,4.42,18.18,18.18,0,0,1,4.13,4.13,10.43,10.43,0,0,0,2.57,2.84,9.21,9.21,0,0,0,5.21,1.45s-4-2.79-4.27-4.94a1.61,1.61,0,0,1,.06-.87,2.59,2.59,0,0,0-.21-2.12A7.64,7.64,0,0,0,355,491.6s-.45-.38-.37-.56a1.8,1.8,0,0,1,.61-1.05.58.58,0,0,1,.18-.05c.07,0,0,0-.09,0a8.78,8.78,0,0,0-2.28-.1c-.79.13-1,.1-1.44.54Z"
        transform="translate(0 8.23)"
    />
    <path
        class="cls-10"
        d="M246.89,490.65s6.81.2,8.82-1.61,6-1.8,6.81-2a22.51,22.51,0,0,0,6.81-4.41c2.2-2.4,9.42-6.41,13.23-7,2.57-.41,10.82-1.41,15.62,0s29.06,7,31.86,7.21,10.52,3,11.47,3.34,2.65,1.49,4.42,2.35c1.07.52,5,1.81,6,2.41,0,0-3.31-5.77-7.88-7.3-11.62-3.88-41.6-11.76-48.63-13.17-6.24-1.24-17.38-4-32.32-1.38-11.94,2.09-23.75,8.12-26.11,10.33s-2.86,1.66-4.73,2.7a25.91,25.91,0,0,0-4.9,4.23s2.92-.56,4.68.7a17.79,17.79,0,0,0,4.26,2.29,13.64,13.64,0,0,0,4.16,1.32Z"
        transform="translate(0 8.23)"
    />
    <path class="cls-10" d="M264.84,487.33l.14.15a4,4,0,0,0,1,.8,12.64,12.64,0,0,0,2.82,1.42,7.88,7.88,0,0,0,1.33.25c.4,0-1.84-2.25-2.71-2.72a4.92,4.92,0,0,0-2.5-.53.84.84,0,0,0-.56.26Z" transform="translate(0 8.23)" />
    <path
        class="cls-9"
        d="M238.07,491.58a12.4,12.4,0,0,0-5.81-1.34c-2.88.22-3.68,0-6.56,1.19a18,18,0,0,0-2.24,1.27,5.82,5.82,0,0,1-.72.95,2.82,2.82,0,0,0-.63.9,3.36,3.36,0,0,0-.22.74,7.09,7.09,0,0,0,3.74-.08,45.36,45.36,0,0,0,5.42-2.08,6.62,6.62,0,0,1,3-1.16C234.69,491.93,238.07,491.58,238.07,491.58Z"
        transform="translate(0 8.23)"
    />
    <path class="cls-11" d="M239.9,488.12s.21,1,.71,1.14a1.61,1.61,0,0,0,1.1,0,2,2,0,0,0,.72-.85A22.29,22.29,0,0,0,239.9,488.12Z" transform="translate(0 8.23)" />
    <path class="cls-10" d="M240.89,488.06a.61.61,0,0,0-.2.81c.26.51,1,.17,1.1,0s.12-.6,0-.74S240.89,488.06,240.89,488.06Z" transform="translate(0 8.23)" />
    <path class="cls-12" d="M239.16,487.58a2.08,2.08,0,0,1,2-.87c1.38.11,1.56.65,1.82,1.16s.69,1.31.13,1a4.16,4.16,0,0,0-3.69-.33C238.08,489.16,239.16,487.58,239.16,487.58Z" transform="translate(0 8.23)" />
    <path
        class="cls-13"
        d="M356.44,685.74s6.59,6.25,8.86,9.33c2,2.74,12.92,13.68,17.1,14.44s3-1.24,0-3.8-6.84-7.79-6.84-9.88-1.81-1.8-1.33-2.47,1.33-4.18,3.8-4.27.19-1.9-2.38-2.28a30.83,30.83,0,0,0-9.11.38C364.92,687.66,356.44,685.74,356.44,685.74Z"
        transform="translate(0 8.23)"
    />
    <path
        class="cls-14"
        d="M326.68,652.74s-5.77,5.37,1.45,8,23.33,10.19,29.35,15.37,11.21,13,14.17,16.39-9.47-5.64-12.14-5.83,4,6,4,6-10.15-1.91-15.23-3.48-22.32-5.07-26.09-4.75-56.39-.94-56.39-.94-19.63-3.22-24.34-5.56-21.25-5.72-21.25-5.72-1.46-1.23,1.15-3.52,17.23-15.36,35.52-15.9,43,.16,46.87-.88,16.46-8.19,22.21-6.1S326.68,652.74,326.68,652.74Z"
        transform="translate(0 8.23)"
    />
    <path class="cls-15" d="M236.46,658.26s-4.57.75-15.92,11.15c0,0,0,1.15,8-1.84s7.91-1.77,8-6.53S236.46,658.26,236.46,658.26Z" transform="translate(0 8.23)" />
    <path class="cls-13" d="M219.51,671.63s11.3-1.32,14.87-3.7,3.9-4.28,5.82-4.19,5.68,1.22,4.69,3.53a8.7,8.7,0,0,1-5.35,4.36c-1.72.47-14.15,3.44-14.81,3.44S218.92,675.47,219.51,671.63Z" transform="translate(0 8.23)" />
    <path class="cls-14" d="M238.76,667.15s1.88-2.15,3.2-.45C242,666.7,241.47,669.18,238.76,667.15Z" transform="translate(0 8.23)" />
    <circle class="cls-10" cx="240.32" cy="675.17" r="0.36" />
    <path class="cls-16" d="M247.71,680.25s1.29-4.17-4.54-6.26-16.89-1-18.49,0a1.37,1.37,0,0,0-.69.93c-.17.71,10,1,13.66,2.2S243,678.47,247.71,680.25Z" transform="translate(0 8.23)" />
    <path class="cls-16" d="M249.74,669.41s-3.27-1.26-3.64-1.76-1.29.39-.54.88A12.68,12.68,0,0,0,249.74,669.41Z" transform="translate(0 8.23)" />
    <path class="cls-16" d="M256.43,678.25s3.33-.83,4.4,0,1.54,2.14.51,2.58S256.43,678.25,256.43,678.25Z" transform="translate(0 8.23)" />
    <path class="cls-16" d="M273.86,684.81s31.88,1.83,47.44.77c0,0,9.79-.38,14.34.69s-6.14-6.82-27.49-5.63-20.37,1.47-29.25,1.05-15.53,0-17,1.75S273.86,684.81,273.86,684.81Z" transform="translate(0 8.23)" />
    <path class="cls-14" d="M308.82,683.79a68.66,68.66,0,0,1,9.18-.67c2.78.19,13.67,1.57,15.36,2.3.87.37,2.36.1,3.24.6s1.54-.6,1.54-.6-16.74-2.92-19-3.16-6.17-.86-9.09.29S307.43,684.41,308.82,683.79Z" transform="translate(0 8.23)" />
    <path class="cls-14" d="M311.07,684.7s6.07-.72,7.36,0,.86,1,.86,1l-9.56.17C309.49,685.91,309.2,685.37,311.07,684.7Z" transform="translate(0 8.23)" />
    <path class="cls-17" d="M249.14,679.38s4.91,6,6.53,8.15,10.42,8.22,13.42,7.86,4.33-3.23,2-4.85-11.1-12.4-14.65-13.28S249.14,679.38,249.14,679.38Z" transform="translate(0 8.23)" />
    <path class="cls-16" d="M250.65,679.66s5.8,8.14,7.76,9.62,6.75,4.36,7.9,4.65-5.89-3.45-7.83-5.75-6.63-8.43-6.87-9S250.16,679,250.65,679.66Z" transform="translate(0 8.23)" />
    <path
        class="cls-18"
        d="M435,490.93s4.52-5.25,9.32-7S457,479.53,457,479.53a140.37,140.37,0,0,1,29.77-7.78s6.75-4.13,10.72-7.07a7.22,7.22,0,0,1,9.32,0c2,1.5.11,2,0,4s.22,4.19,6.22,5.42,40.62,8.32,47.33,12.31,5.77,3.76,7.59,2.61,7.16-3.39,6.31-1.79.82,3.32.09,3.74.26.41.45.8,3.47,6.35,6.62,7.6,2.68,1.7-.33,2.16-12.38-4.78-13.49-7.27-21.15,3.14-27.11,3.28-27.29,4.41-31.2,5-34.43,1.66-37.57,1.41-20.5-2-22.76-3.08S430.52,497.63,432,494Z"
        transform="translate(0 8.23)"
    />
    <path
        class="cls-19"
        d="M449.14,482.25s12.32-4.25,16.69-5.82,9.61-2.86,13.95-2.19,16.84,4.91,23.87,5,18.1-.77,25.61,1.54,12,2.89,10.69,6.54,1.63,3.95,2.31,4.34-.48,1.73,0,2.31,1.78,2.69.21,3.27-9.17,0-11.19.87-.09-2.22,1.16-2.41-1.16-1.15-3.37.58-.48-1.35.38-1.64-.09-1.35-3.17,1.06-6.65,3.66-9.25,4.91-16.55,3.85-26.18,3.18-19-.58-18.78-2.7,2-2.4-.67-3.08-6.64,1.54-11.94-2.6S446.36,486.56,449.14,482.25Z"
        transform="translate(0 8.23)"
    />
    <path class="cls-19" d="M435.76,497.16s16.72,5.23,22.38,5.23c0,0,1.53-1.38-2-2.62S437.58,493.82,435.76,497.16Z" transform="translate(0 8.23)" />
    <path class="cls-20" d="M460.74,500.29s8.08-.52,12.43,3.62,5.63,6.58,5.63,7.85-6.05,1.92-8.29,0S461.8,503.58,460.74,500.29Z" transform="translate(0 8.23)" />
    <path
        class="cls-21"
        d="M445.14,568.61s18.15-3.49,29.44-3.76,18.15-4.44,23.4-9.41,11.16-10,14.38-10,6.86-.93,2.42,5.92-5.1,8.61-1.21,12.37,12.64,6.59,15.74,7.53,20.81,3.88,27.68,12.63c0,0,.83,6.68,5.56,3.47s18-2.37,18-2.37,1.61-.3.38,2.14-2.51,4.73-4,5.57-.23,1,.53,1.62,2.14,5.07,3.51,6,5.73,3.41-1.06,3.64-16.72-3.68-21.3-8.25-9.16-5.11-10.3-4.5-15.19,5.73-23.06,6.41-23.58-.07-27,.08-63.64-.7-63.64-.7l-2.62,1.16s-14.28-2.49-16-3.88-4.07-2.59,0-7.19,11.11-12.74,15.24-14.69S445.14,568.61,445.14,568.61Z"
        transform="translate(0 8.23)"
    />
    <path class="cls-22" d="M428.33,591s2.32,2.44,4.29,2.44,2.31,1.46.81,2.36a9.78,9.78,0,0,0-2.55,2.29s10.45,1.62,13,2,9.52,1,11.61,1-19-10.1-19-10.1A14.25,14.25,0,0,0,428.33,591Z" transform="translate(0 8.23)" />
    <path class="cls-10" d="M420,582.57s5.18,3,5.68,4c.37.69-1.53.51-1.53.51l-6.23-1.85A18,18,0,0,1,420,582.57Z" transform="translate(0 8.23)" />
    <path
        class="cls-23"
        d="M458.63,596.68l6.26,3.72s18.81-1,24.85-2.44,16.33-.12,16.33-.12a20.69,20.69,0,0,1,8.28-1.16c3.95.47,10.45-1.62,11.49-3.48s-.7-2.86-3.83-2.82a37.18,37.18,0,0,0-15.94,2.84c-7.63,3.11-35-4.9-35-4.9Z"
        transform="translate(0 8.23)"
    />
    <path
        class="cls-24"
        d="M433.65,590.29s2.63-.73,2.63-1.61-1.75-6.58,3.51-9.22,14.19-5.26,27.51-2,14.63,3.36,25.16,10.24,13.61,5.56,13.61,5.56-22.83,5-29.26,5.12-8.7-.23-6.95-1.06-.44-1.46-2.52-1.35a29.43,29.43,0,0,0-4.5.67,14.49,14.49,0,0,1,5.29,7.21,14.54,14.54,0,0,0,6.14,8.67c2.3,1.38,3.45,3.16-1.76,3.16s-22.18-16.36-24.71-18.27S437.15,590.43,433.65,590.29Z"
        transform="translate(0 8.23)"
    />
    <path class="cls-10" d="M433.43,585.93a3.14,3.14,0,0,0,4.51,0S436.3,583.36,433.43,585.93Z" transform="translate(0 8.23)" />
    <ellipse class="cls-24" cx="434.99" cy="593.99" rx="0.43" ry="0.29" />
    <path
        class="cls-25"
        d="M494.64,570.81a55.83,55.83,0,0,1,12.63,6.38c6.76,4.5,19.39,10.25,24.64,9.5s14.89-3.75,19.76-2.75a12.76,12.76,0,0,1,7.16,3.87,21.46,21.46,0,0,0-1.54-3.43,11.48,11.48,0,0,0-4-3.58c-2.61-1.45-5.88-2.86-12-3.11s-20.13-.13-26.14-2.63S498.52,567.8,493,567.8a46.14,46.14,0,0,0-11.29,1.2c-1.57.47-4,2,.23,1S494.64,570.81,494.64,570.81Z"
        transform="translate(0 8.23)"
    />
    <path class="cls-22" d="M414.12,589.72s8.89-1.82,11.11-2.47c2.83-.83-6.57-3.08-6.57-3.08A26.85,26.85,0,0,0,414.12,589.72Z" transform="translate(0 8.23)" />
    <path
        class="cls-25"
        d="M362.63,592.91a10.58,10.58,0,0,1,6,.48,79,79,0,0,0,10.05,2.73c1.51.18,2.48,2.06,0,1.15,0,0-.79-.24-2.06,1.21s-1.87,1.57-2.3,1.57-1.15.18-.42,1.15.6,3.69.73,4.84,3.26,3.94,4.05,4.42,2.18,2.06-.91,1-7.92-5.75-9.74-6.78-7-5.2-8-8.11-.85-3.85-.85-3.85Z"
        transform="translate(0 8.23)"
    />
    <path
        class="cls-26"
        d="M302.91,591.44s7.23-3.61,22.37.55c0,0,11.64,1.17,17.21,2.5s15.14,3.63,18,3a9,9,0,0,1-.51-3.71c.26-1.6,7.91,3.17,9,3.81s-5.87-6-7.7-7.91-11.77-10.62-20-12.94c0,0-6.2-3.31-8.81-4.93s-17.17-8.19-20.88-8.86-39.14,1.07-39.14,1.07l-33.34,11.7-1.85.44s-4.51,2.45-6.65,5.39-2.62,2.52-2.36,5.09a2.39,2.39,0,0,1-1.12,2.08c-1.19.67.31,1.66.31,1.66L249.59,592s7.79.28,11.87.37S277,585.18,277,585.18Z"
        transform="translate(0 8.23)"
    />
    <path class="cls-22" d="M312.9,563.35s-6.67-1.15-8.39-4.67-2.09-7-.72-10,3.3-5.67-2.37-3.37-8.81,8.25-11.59,10.26-4.61,3.6-9.68,4.7,1.73,2.12,1.73,2.12L313.19,565Z" transform="translate(0 8.23)" />
    <ellipse class="cls-22" cx="245.72" cy="591.61" rx="2.67" ry="1.5" />
    <path d="M244.23,583.75a2,2,0,0,1,2.39-.82c1.77.44-.52,1.06-.9,1.09A2.1,2.1,0,0,1,244.23,583.75Z" transform="translate(0 8.23)" />
    <ellipse class="cls-27" cx="245.27" cy="591.83" rx="0.3" ry="0.36" />
    <path class="cls-28" d="M225.64,592.41s-1-2.19.3-3,4.58-2.53,7.34-2.61,5.08-.76,6-.6,1.32.22.94.68-8.4,4.39-8.4,4.39Z" transform="translate(0 8.23)" />
    <path
        class="cls-27"
        d="M225.91,592.88s-1.28-1.54,1.14-1.67,7.51-1.19,10.76-3.65,9.44-1.75,10.49-3.38,1.54,1.8,2.9,2.64a10.72,10.72,0,0,0,4.13,1.5c1,0,1.67,1.84,1.1,3s-13.88.48-16.34,1.14S228.28,595.07,225.91,592.88Z"
        transform="translate(0 8.23)"
    />
    <path
        class="cls-27"
        d="M252.17,584.05a41.3,41.3,0,0,1,5,4.77c1.26,1.71,12.61,5.14,24.72,4.21s9.43.61,16.39-.62,11-3.09,17.81-2.62,15.31,1,10.86-1.47-17.35-5.1-23.75-4.27-22.64-1.17-28.3-.82-17.25,2-19.37.82C252.1,582.19,250.49,583.59,252.17,584.05Z"
        transform="translate(0 8.23)"
    />
    <path class="cls-28" d="M236.5,576.71s3.92.92,15-5,37.15-7.33,40.56-7.07,14.8.13,21.88,1.7,2.75-2.62-3.8-3.67-22.41-4.32-26.21-3.27-19.09,3.67-27.3,7.34S239.9,574.22,236.5,576.71Z" transform="translate(0 8.23)" />
    <path
        class="cls-26"
        d="M265.19,587.53a23.9,23.9,0,0,1-6-1.33c-2.78-1-5.77-1.26.89,6.34a67,67,0,0,0,12.13,9.94c1.77.95,5.45,2.63,8.36,2.72s.1-1.38-1-1.81S273.08,597,273,593.2C273,589,268.42,587.84,265.19,587.53Z"
        transform="translate(0 8.23)"
    />
    <path
        class="cls-21"
        d="M453.72,668.14s23.87-4.2,25.93-7.89,4.5-14.07,4.79-23.79c0,0,2.58-10.46,4.05-6.71s2.36,9.14,4.79,12.45,2.51,11.72,4.94,15.77,3.17,4.79,17.39,6,32.51,8.47,38,10.85,9.07,4,13.68,6.39,15.12,8.53,15.12,8.53l-7.34-.72A29.93,29.93,0,0,1,564,690.89c-6-.2-31,.13-35.77.79s-22.35,3.15-23.61,3.43-7,.36-7,.36l-8.39,1.4-14.75.66h-10l-20.94-9.69-15.25-6.3a1.82,1.82,0,0,1-1.17-2.25c.48-1.66,4.29-5.65,6.56-7.16s7.89-1.59,9.79-1.87S453.72,668.14,453.72,668.14Z"
        transform="translate(0 8.23)"
    />
    <path
        class="cls-27"
        d="M466.82,698s23.67.87,39.76-3.35c0,0,9-1.44,11.89-1.63s-3-.48-3.45-1,0-1.63,3.16-2.59,7.38-3,12.07-3.83,2.3-3.49-3.83-5-13,.88-15.43,2.7-6.61,8-10.35,10.15-12.84,3.55-18.68,3.45-14.76-.28-16.39-.76S466.82,698,466.82,698Z"
        transform="translate(0 8.23)"
    />
    <path class="cls-27" d="M437.44,675.72s3.52-2.46,6.7-1.45,5.19,3,2,3.85-7.14.28-8.26-.34S436,676.52,437.44,675.72Z" transform="translate(0 8.23)" />
    <path class="cls-27" d="M429.3,680.69s8.2-.34,9.48,0a5.55,5.55,0,0,1,2.79,1.45c1.17,1,9.27,6.53,10.1,7.2s.78,5.8.78,5.8-18.91-6.25-23.77-12.5c0,0-2-1.84-.71-1.9Z" transform="translate(0 8.23)" />
    <path class="cls-10" d="M450.32,686.67s9.65,5.3,12.08,4.87,6.43,2.52,7.13,6.08.08,12.86-2.52,16.17-7.39,3.64-11.82-2.87-7.3-14.17-6.34-20.86C448.85,690.06,449,686.72,450.32,686.67Z" transform="translate(0 8.23)" />
    <path class="cls-22" d="M500.06,660.62s1.52,2.24,11.61,2.8c0,0-.08,1.28-4.16,1.68s-6.73,7-7.93,9-5.84,4.88-8.88,3.6-5-5.76-6.08-6.56-1.6-1.92.48-.72,3.2,3.92,4.4,4,2.8-1,3-3.52.32-6.48,3.92-8.4Z" transform="translate(0 8.23)" />
    <path class="cls-27" d="M567.12,690.89a18.59,18.59,0,0,0,6.29-1.5c2.47-1.29-6.29-2.63-6.29-2.63A4.94,4.94,0,0,0,567.12,690.89Z" transform="translate(0 8.23)" />
    <path class="cls-28" d="M567.16,685.77s7.55-.11,10,.69,7.65,1.66,9.15,3.48,1.66,2.62,2.9,4,3.48,2.14.69,2-11.83-3.42-14.78-5.11S563.79,685.34,567.16,685.77Z" transform="translate(0 8.23)" />
    <path
        class="cls-29"
        d="M676.55,429.16s-10.36,38-10.36,41.88-4.32,2.15-1.73,13.81,7.77,24.17,5.61,30.65-2.8,12.73-1.51,30,1.73,16-.43,30.21-2.16,15.11-4.32,25,4.75,26.33,6.48,33.67,10.36,23.31,15.54,32.81,7.77,23.31,18.56,27.19,30.22,10.36,41.87,9.07,15.11-2.16,15.11-2.16"
        transform="translate(0 8.23)"
    />
    <path
        class="cls-30"
        d="M664.33,514.09c-2.27,6.79-3,13.36-1.59,31.47s1.81,16.75-.45,31.69-2.26,15.84-4.53,26.25,5,27.62,6.79,35.31,10.87,24.45,16.3,34.41,8.15,24.45,19.47,28.52,31.69,10.87,43.91,9.51,18-3,18-3"
        transform="translate(0 8.23)"
    />
    <path class="cls-31" d="M656.91,630.54c3.26,10.21,3.45,9.06,5.61,16.83s9.13,22.12,14.59,32.14,8.2,24.59,19.59,28.69,31.88,10.94,44.18,9.57a197.51,197.51,0,0,0,22.65-3.92" transform="translate(0 8.23)" />
    <path
        class="cls-32"
        d="M651.3,631.4c-1.82-7.72-5.28-16.88-3-27.33s2.27-11.35,4.54-26.34,1.81-13.62.45-31.79-.68-24.75,1.59-31.56-3.18-20-5.9-32.24,1.81-10.45,1.81-14.54c0-2.77,5-22.1,8.26-34.21a39.2,39.2,0,0,0,.22-19.22c-1.75-7.27-3.73-16.8-3.23-21.05.87-7.34,6.05-35.83,5.62-42.3s1.72-31.95,0-38.85,3.45-22.45,2.15-27.63-5.18-23.74-8.2-30.65"
        transform="translate(0 8.23)"
    />
    <path
        class="cls-33"
        d="M648.71,254.12c3,6.91,6.9,25.47,8.2,30.65s-3.89,20.72-2.16,27.63-.43,32.37,0,38.85-4.75,35-5.61,42.3c-.5,4.25,1.47,13.78,3.22,21.06a39.16,39.16,0,0,1-.22,19.21c-3.23,12.11-8.25,31.44-8.25,34.22,0,4.08-4.54,2.27-1.82,14.53s8.17,25.43,5.9,32.24-3,13.4-1.59,31.56,1.82,16.81-.45,31.79-2.27,15.9-4.54,26.34,1.18,19.61,3,27.33c0,0,6.91,18.13,13,30.22s13.38,25.46,16,32.8S685,716,690.15,717.73s36.69,9.93,41.44,9.93,27.62-4.32,31.94-6"
        transform="translate(0 8.23)"
    />
    <path
        class="cls-34"
        d="M643,255.53c3.33,7,6.69,21.65,8.12,26.93s-4.22,21.13-2.31,28.17-.4,33,.09,39.61-5.13,35.66-6.06,43.15c-.54,4.33,1.64,14.05,3.58,21.46a37.21,37.21,0,0,1-.2,19.59c-3.51,12.36-9,32.07-9,34.9,0,4.17-5,2.33-2,14.83s9,25.91,6.55,32.86-3.21,13.66-1.68,32.18,2,17.13-.42,32.42-2.46,16.21-4.93,26.86,1.35,20,3.35,27.86c0,0,7.62,18.47,14.27,30.78s14.73,25.93,17.59,33.41,12.83,21.54,18.51,23.28,40.26,10,45.46,10,25.29-4.55,30-6.32"
        transform="translate(0 8.23)"
    />
    <text class="cls-35" transform="translate(238.09 891.21)">SVG SIN FONDO</text>
</svg>
