<svg xmlns="http://www.w3.org/2000/svg" viewBox="0 0 399.04 350.85">
    <defs>
        <style>
            .cls-1 {
                fill: #1a1a1a;
            }
            .cls-2 {
                fill: #013851;
            }
            .cls-3 {
                fill: #23656f;
            }
            .cls-4,
            .cls-6 {
                fill: none;
                stroke: #f5f7e6;
                stroke-miterlimit: 10;
            }
            .cls-4 {
                stroke-width: 5px;
            }
            .cls-5 {
                fill: #f5f7e6;
            }
            .cls-6 {
                stroke-width: 3px;
            }
            .cls-7 {
                fill: #cecdc2;
            }
            .cls-8 {
                fill: #ccc;
            }
            .cls-9 {
                fill: #111110;
            }
            .cls-10 {
                fill: #f5b97d;
            }
        </style>
    </defs>
    <title>TAMAÑOS</title>
    <g id="Capa_1" data-name="Capa 1">
        <path
            class="cls-1"
            d="M260.9,339.66a11.22,11.22,0,0,1-1.38,2c-.32.16.13,1.61.52,1.71s.63.11.63.39.94,1.29,1.18,1.5a.69.69,0,0,0,.88,0c.31-.21.45.17.38.38s-.17.53-.42.49-.31,1.05-.07,1.16a5.51,5.51,0,0,0,2.07.59c.66-.07.66-1.54.38-1.68s-.56-.1-.38-.8a2,2,0,0,1,.81.75c.22.32.72-.42,1.22-.61a.81.81,0,0,1,.86.28c0,.15-1.17,3.31-.59,4.14s7.06,6.76,8.37,7.06a24.5,24.5,0,0,1,4.12,1.66c.7.35,1,.67,1.73.67s.84.61,1.42.72a4.52,4.52,0,0,0,2.58-.58c.58-.44.65-.95,0-.75s-.91.41-1.22.24-1.15-1.19-2.17-1.29-.82.07-1.67-.75a12.27,12.27,0,0,0-3.43-2.48c-1.22-.47-3.24-1.83-2.46-1.87a13.85,13.85,0,0,1,3.73,1.21,14.06,14.06,0,0,0,3.3.89c.83.06,1.31-.23,1.69.27a28.06,28.06,0,0,0,7.6,4.94c3.41,1.37,2.82,1.29,3.67,1s4.48-2.26,5.8-2.6,1.69-.94,2.83-.76.76-.05,1.31.38,3.9,3,5.09,3.3a52.67,52.67,0,0,0,6.39,1.14c1.16.06,1.2-.27,2.11-1.06s1.83-1.73,1.23-2.13-3.93-.49-7-1.45-4.72-1.29-6.22-2.41-3.39-1.37-3.88-1-1.25,2-2.5,2.1-4.65.26-5.65.89-2.48-1.52-3.05-2.1-3.58-3.53-3.89-3.79-.06-.91-.06-.91,7.91.65,8.84.58,6.64-1.31,8.84-1.55a19.89,19.89,0,0,1,3.45-.15s.41,1.28,3.08,1.06a47.52,47.52,0,0,0,4.8,2.8c1.54.66,9.36,3,10.36,3.33s2.26,1,2.64-2a6.87,6.87,0,0,1,1.09-2.2c.58-.55.74-1.22-1-1.7s-7.74-2.07-11.18-2.25-5.5-1-5.82-1.26-2.6-1.55-4.23-.33a8.39,8.39,0,0,0-.74.52c-.33.27-7.45-.39-10.35.19a8.6,8.6,0,0,1-5.61-1.12c-.61-.19-4.56-1.74-6-1.66l-1.07,0c-.25,0-5.93-2.22-6-2.8s-.73-.73.82-.58a36.71,36.71,0,0,1,7,2,17.39,17.39,0,0,0,1.89.83,3.41,3.41,0,0,0,1.55,1,4,4,0,0,1,1.62.32c.34.24,1.19.95.85.27a4.42,4.42,0,0,0-1.94-2.52c-1.31-.68-2.18-.22-2.71-.73s-3.1-2.93-5.07-3.39a38.75,38.75,0,0,0-8.19-.83c-1.52.17-4.48.41-5.45,1.75,0,0-.56,1-.75,1s-.4.29-.55.07-.09-.76-.19-.9a3.38,3.38,0,0,0-.6-.57s.17-.55-.6-.42c0,0-.34-.06-.33-.2s.07-.65-.83-.67-2.13-.08-2.82.62Z"
            transform="translate(-4.94 -11.47)"
        />
        <path
            class="cls-2"
            d="M73.36,81.38l37.28,14.73S99.36,102.84,95,103.94s-7.83,1.72-9.39,3.13-10.18.79-12.22.94-5.33,1.73-9.09,6.27-11.74,12-12.21,5.07S56.6,96.58,61,91.57C66.27,85.53,77,85.93,73.36,81.38Z"
            transform="translate(-4.94 -11.47)"
        />
        <path
            class="cls-3"
            d="M5.84,21.34s-3.49,7.19,3.31,16,24.34,27.09,37.68,33.5S103.61,98.26,122.45,104s55.74,15.83,77.06,13.34,22.24-.26,33.89-2,35.45-6.49,50-16.33,34.94-21.61,38.6-22.4,10.73-4.84,15.44-3-9.55-5.1-9.55-5.1l-37.68,3.7-33,12.39-31,3.8L186,75,156.6,65.55l-32.06-3.27L103,53.91,92.62,42.27,75,38.47l-56.26-15L8,18.19A17.89,17.89,0,0,0,5.84,21.34Z"
            transform="translate(-4.94 -11.47)"
        />
        <path
            class="cls-4"
            d="M6.74,19.71s14.45,8.44,22.55,11.4c0,0,22.47,8.28,31.82,9.66s21.69,4.65,25.45,5.52c5.12,1.18,6.37,4,10.7,7.6s15.29,10.37,21.26,10.89,20.76,1.53,24.53,1.49c5.73-.06,19.48,3.64,26.58,6.75s28.54,10.86,34.17,13.82c9,4.74,26.25,5.79,31.87,5s20.1-3.76,24.86-7"
            transform="translate(-4.94 -11.47)"
        />
        <path
            class="cls-2"
            d="M28.38,11.63c-4.44,0-18.14-1.94-21.19,7.28,0,0,26.42,16,57.15,21.54S92.11,48.33,95,50.64c2.15,1.69,13.33,11.58,21.79,13s31.45,1.21,39.68,4.11,35.8,12.34,49.11,18.87,41.16,4.67,47.45,2.61,63.59-22.69,73.5-18.33c0,0,18.63,26.61,43.07,27.82s31.44-1.21,33.62-3.39-1-3.63-3.87-3.87S370.6,82.3,363.1,72.14s-8.43-10.35-8.43-10.35,7.55-8.8,7-16.14,5.26-8.66,5.26-9.49-9.69-.48-15.17,1.25-12.81.48-17.93,5.75-5.82,9.9-5.82,9.9-16.08-2-38.54,7.65-48.81-2-48.81-2-4.07-2.67-.95-6S241,46,237,45.92s-27.54,3.85-41.4-2.79-63.44-25.57-83.74-26.74C92,15.24,41.6,11.93,33.37,11.77Z"
            transform="translate(-4.94 -11.47)"
        />
        <path
            class="cls-5"
            d="M104.21,47.7A11,11,0,0,1,109,46.22a11.73,11.73,0,0,1,6.37,2.22c1.56,1.12,2.89,2.45,3,2.15a5.12,5.12,0,0,0-1.85-3.78c-1.56-1.26-5.63-3.18-8.45-2.22S103.59,47.25,104.21,47.7Z"
            transform="translate(-4.94 -11.47)"
        />
        <path
            class="cls-5"
            d="M105.85,52s3.68,3,6.26,2.45a20.47,20.47,0,0,0,3.17-.59c.88-.34,1.26-.25.46.66s-3.46,1.53-5.28,1.32a8.15,8.15,0,0,1-4.86-2.28c-1.31-1.31-1.4-2.45-1.23-2.7S105,51.32,105.85,52Z"
            transform="translate(-4.94 -11.47)"
        />
        <path class="cls-5" d="M105.69,49s2-1.85,3.69-1.79,4.52.95,5.65,2.44,1.78,2,.53,2.73-4.64,1.85-6.78.54S105.21,50.53,105.69,49Z" transform="translate(-4.94 -11.47)" />
        <ellipse class="cls-2" cx="104.33" cy="39.46" rx="2.32" ry="2.6" />
        <path class="cls-6" d="M145,48.71s-.12,10.32-10,11.87-26.7-1.78-31.38-3.78a60.83,60.83,0,0,1-7.41-3.71" transform="translate(-4.94 -11.47)" />
        <path
            class="cls-5"
            d="M8.15,28.07a10.75,10.75,0,0,0,1.74,5.37c3.54,5.5,15.73,20,27.85,28.35,15.41,10.66,39.72,23,46.92,26.2s31.64,12.29,42.19,15.59,35.68,8.92,50.15,10.78c11.15,1.43,38.89,2.3,51.65.54s35-8.75,41.54-12c7.78-3.84,15.73-7.58,22.33-12.52S306.26,81.15,311,79.5s12-4.51,9.23-4-12.31,3-18,6.6S285.68,93.33,280.6,96c-4.83,2.55-27.62,12.62-45.47,15.81-18.78,3.36-49.21.42-57.92-.48-16.61-1.7-46.59-9.74-59.23-13.48S76.17,82.69,64.19,76.09,36.86,60.9,27.84,51.81,10.54,32.89,9,28.38C8.23,26.13,8.1,26.82,8.15,28.07Z"
            transform="translate(-4.94 -11.47)"
        />
        <path
            class="cls-5"
            d="M11.06,30.25s10.2,13,16.9,19.26c7.52,7,22,17,29.12,20.83S78.28,82.1,93.89,87.69s34.6,11.53,50.21,15.38,61.12,10.25,77.77,7.68,32-5.7,39.88-9.2c6.72-3,23.34-12.19,31.73-17.11a78.66,78.66,0,0,1,15-7.23c3.45-1.34,6.48-2.78-3.14-.26a16.71,16.71,0,0,0-2.72,1c-3.4,1.62-12.68,6.12-19,9.87-7.81,4.66-20.1,11.23-29.54,14s-33.83,6.69-39.77,6.82c-5.42.11-44.17-3.27-55.33-4.78C146.1,102.14,123.33,96,110.6,91.42c-13.09-4.66-32.2-12-41.4-16.89-9.94-5.26-29.65-16.57-39-25A152.74,152.74,0,0,1,11.06,28.76C9.46,26.4,10.6,29.64,11.06,30.25Z"
            transform="translate(-4.94 -11.47)"
        />
        <path
            class="cls-5"
            d="M12.59,28.47s12,13.21,16.78,17.32S48.13,60.51,54.22,64.43,85.48,81,96.34,84.94s39.76,13.46,50.74,15.45,40.67,7.18,49.78,5.91,14.72.91,14.72.91,26.55-3,35.9-6.22,19-6.23,27.82-11.8S294,77.73,297.92,76.63s8.51-2.43,10.62-3-2.83-.18-4.1.06-11.77,3.2-15.93,5.55-15,8.39-19.73,10.86-22.14,8.75-26.25,9.78-26.91,4.76-30.83,4.64-45.37-3.25-45.37-3.25-21.91-4-26.61-5.43c0,0-36.44-9.44-42.46-12.4,0,0-29.21-12.07-39.72-19.4C48,57.42,37.28,50.87,30.28,44.29S17.24,32,15.67,30.4s-4.22-4.52-4.16-4A8.81,8.81,0,0,0,12.59,28.47Z"
            transform="translate(-4.94 -11.47)"
        />
        <path
            class="cls-5"
            d="M34.81,46.24S23.32,36.89,21.23,34.17c-1.05-1.38-5.82-7.3,2.4.66S45.55,52.66,55.27,58.6a239.71,239.71,0,0,0,56.37,25.17c25.8,7.49,57.55,14.86,62.47,15.3s31.6,1.76,31.6,1.76,26.2-2.32,37.72-5.73c11.8-3.49,17.74-5.61,22.56-8,5-2.48,11.34-5.26,13.06-5,1.47.2-1.81,1.07-5.69,3.09-7.44,3.87-20.54,9.48-28.79,11.89s-38.6,6.53-44.43,6.69-37.09-4.67-37.09-4.67-30.08-6-40.49-9.43S97.24,81.81,87.33,77.4s-26.41-13.08-32-16.66S38.82,49.68,34.81,46.24Z"
            transform="translate(-4.94 -11.47)"
        />
        <path
            class="cls-5"
            d="M34.4,42.36l-7.06-5.61A11.48,11.48,0,0,1,25,34.3c-.63-.92-.83-1.5,1.72.79,4.46,4,16.67,12.08,21.13,14.66s24.2,15.41,47.65,24.31a367.74,367.74,0,0,0,42.09,13.23s31.51,7.21,41.68,7.53a184.53,184.53,0,0,1,22,2.4s20.89-.22,28.06-1.82.29,1-2,1.4-21.69,3.12-30,2.4c-4.49-.38-44.32-6.3-44.32-6.3S133.16,89,122.68,85.48s-25-7.77-35.48-12.4-23.19-11-32.53-17S37.89,45.35,34.4,42.36Z"
            transform="translate(-4.94 -11.47)"
        />
        <path
            class="cls-5"
            d="M33.48,39s-3.46-2.3-4.39-3.16-3.89-4,2.19.43S51.42,48.15,60,52.7s32.14,15.35,40.33,18.7,29.12,10.11,37.41,12.54,45.08,8,45.08,8l15.37,2.77s19.18,0,21.2-.24,6.15-.2-1.87,1.06-22.53.67-22.53.67l-48.95-8.16s-28.43-7.15-42.62-13.18-34-14.6-43.62-20.2S38.53,42.78,33.48,39Z"
            transform="translate(-4.94 -11.47)"
        />
        <path
            class="cls-2"
            d="M134,82.3S121.4,71,137.41,72.38s40.33,7.91,52.28,15.2,29.79,17.63,36.07,32,4.46,17.63,10.54,22.7,16.62,16,17.83,19.45,3,6.48-10.13,3.45-31.21-18.65-34.25-22.5-19-25.73-26.14-28.77-19.65-10.54-23.5-13.78S148.7,89.4,143.65,87.78A27.45,27.45,0,0,1,134,82.3Z"
            transform="translate(-4.94 -11.47)"
        />
        <path
            class="cls-3"
            d="M132.83,77.05s-3.83-1.82-.52,2.14,12.13,6,13.43,6.36,4.8,1.62,9.6,6.36,22.85,16,28.84,19.46S200,126.45,201.81,129s14.35,18.16,22.71,24c8.52,5.9,18.2,10.84,23.39,10.71,3.33-.08-2.13-1.31-5.88-3.05-5.25-2.45-15.95-8.77-23.06-15.62-7-6.71-17.54-23.34-27.36-31.84-8.49-7.35-22-12.39-26.36-16S153,85,146.91,83.27,135.56,79.53,132.83,77.05Z"
            transform="translate(-4.94 -11.47)"
        />
        <path
            class="cls-5"
            d="M237.86,309.13s-1.36,1.94.6,2.08,6-1.25,7-1.39,6.3.42,9.79-.14a57,57,0,0,1,8.54-.42s14.72-.17,20.56-1.26c6.48-1.22,15.52-2.1,15.52-2.1s11.44-.57,16.51.42c3.8.74,6.71,2.52,9.37,1.68a22.82,22.82,0,0,1,4.06,4.19c1.39,2.1,4.75,2.1,4.75,2.1s-3.5-2.38-2.94-4.05-1.53-2.8-1.53-3.08.28-.84.56-.84-2.1-.42-2.66.28c0,0-2.24-3.64-5.18-4.62s-25.67-6.64-27.35-6.92-11.22-3.25-17.52-3.39-12.33,0-16.53,1.36-11.47,4.2-13.85,6.44a5.65,5.65,0,0,1-2.25,1.17c-1.26.28-5.44,4.28-6,5.68S238.63,308.42,237.86,309.13Z"
            transform="translate(-4.94 -11.47)"
        />
        <path
            class="cls-7"
            d="M268,304.15a4.63,4.63,0,0,1,2.61,1.61,4,4,0,0,0,1.77.89c.86.25,2.78-.12,1.24.72s-7.69.81-9.51,0a10.41,10.41,0,0,0-3.29-.88,13.39,13.39,0,0,0,1.5-1,4.73,4.73,0,0,1,2.06-.44,6.54,6.54,0,0,0,2-.37l.75-.56H268"
            transform="translate(-4.94 -11.47)"
        />
        <path
            class="cls-7"
            d="M324,305.33a7.55,7.55,0,0,0,2.21,3.08,12.61,12.61,0,0,1,2.88,2.88,7.24,7.24,0,0,0,1.8,2,6.48,6.48,0,0,0,3.63,1s-2.81-2-3-3.45a1.19,1.19,0,0,1,0-.6,1.78,1.78,0,0,0-.15-1.49,5.19,5.19,0,0,0-1.12-1.28s-.31-.26-.26-.38.11-.53.43-.74a.4.4,0,0,1,.13,0c.05,0,0,0-.07,0a6.15,6.15,0,0,0-1.59-.07c-.55.09-.68.07-1,.38Z"
            transform="translate(-4.94 -11.47)"
        />
        <path
            class="cls-1"
            d="M254.9,306.81s4.75.14,6.15-1.12,4.2-1.26,4.76-1.4a29.83,29.83,0,0,0,4.75-3.08,29.11,29.11,0,0,1,9.23-4.89c1.77-.45,7.56-1,10.91,0s20.28,4.89,22.24,5,7.34,2.12,8,2.33,1.84,1,3.08,1.65c.75.36,3.5,1.26,4.2,1.68,0,0-2.31-4-5.5-5.1-8.11-2.7-29-8.21-33.94-9.19-4.36-.87-12.14-2.8-22.57-1-8.33,1.46-16.57,5.67-18.22,7.22s-2,1.15-3.3,1.88a18.41,18.41,0,0,0-3.43,2.95,5,5,0,0,1,3.27.49,13,13,0,0,0,3,1.6,12.06,12.06,0,0,0,2.85.62C251.64,306.71,254.9,306.81,254.9,306.81Z"
            transform="translate(-4.94 -11.47)"
        />
        <path class="cls-1" d="M267.42,304.5l.11.1a2.46,2.46,0,0,0,.67.55,8.27,8.27,0,0,0,2,1,5.65,5.65,0,0,0,.93.17c.28,0-1.28-1.57-1.89-1.9a3.6,3.6,0,0,0-1.75-.37.6.6,0,0,0-.38.18Z" transform="translate(-4.94 -11.47)" />
        <path
            class="cls-7"
            d="M248.74,307.46a8.65,8.65,0,0,0-4.06-.93c-2,.15-2.57,0-4.58.82a13.27,13.27,0,0,0-1.56.89,3.9,3.9,0,0,1-.51.67,2,2,0,0,0-.43.63,2,2,0,0,0-.16.51,4.88,4.88,0,0,0,2.61-.06,29.33,29.33,0,0,0,3.79-1.45,4.67,4.67,0,0,1,2.07-.81C246.38,307.71,248.74,307.46,248.74,307.46Z"
            transform="translate(-4.94 -11.47)"
        />
        <path
            class="cls-5"
            d="M181.87,223.91a62,62,0,0,0,9,6.39,118.63,118.63,0,0,0,18.3,7.36,117.38,117.38,0,0,0,29.18,4.1c13.17.33,39.86-.41,44.34,0s7.6.57,8.72.73,1.76-2.4,1.76-2.4l9-1.6V232.9l-5.68-6.24-14.24-2-9.12,2-2,5.28L207,226.5l-6.4-2.59-7-.61Z"
            transform="translate(-4.94 -11.47)"
        />
        <path
            class="cls-1"
            d="M181.87,220.81s-1.78,3.19,1.17,3,11.07.1,13.88.77a37,37,0,0,1,7.3,2.42c1.75.87,2.48,1.6,1.68,2.94s12.26,7.44,12.26,7.44,8.44,1.47,12.93,1.88,30.48,2.41,33.23,1.8,6.23-2.27,6-5,1.54-6.1,6.63-7.7,11.59.46,13.53,1.13a54.49,54.49,0,0,1,7.24,3.39c1.54.9,4.42,5-.81,5.06s-16.94-1.81-18.55-.74-2.75,2.68-.61,3.15,15,1.47,20.24,3.21,17.55,4.76,21.37,4.42,6.83-2.47,7.7-2.21,4.76,5.7,7.17,7.71,10.18,7.43,12,7.77,1.07-.8-.47-3.28-1.27-5.5-2.34-7.1-9.45-5.43-12.4-5.9c0,0-.73-4.89-9.58-10.85s-29.07-17.42-35.5-19.9-17.22-3.48-19.5-8.44c0,0-6.09-15.34-6.09-20.17s.73-11.18-2.62-6.36-6.76,15.27-8,20.17-3.48,7.1-5.89,7.7-19.23.74-28.87,2.34S191.36,212.36,187,216,182.9,219.47,181.87,220.81Z"
            transform="translate(-4.94 -11.47)"
        />
        <path class="cls-8" d="M197.55,218.07s-5.43,2.21,0,4.2c0,0,4.65.67,7.69-1.05s2.49-2.77.67-3.15A21,21,0,0,0,197.55,218.07Z" transform="translate(-4.94 -11.47)" />
        <path
            class="cls-8"
            d="M252.54,209.27s6.44-2.35,11-.55,6.44,4.75,4.1,7.48-6.77,7.47-11.52,6.43-10.53-4.91-10.8-5.78,2.18-1,4.09-.38,5.68,1.91,5.9.43-4-2.78-4.31-4.09S250.19,210.58,252.54,209.27Z"
            transform="translate(-4.94 -11.47)"
        />
        <path class="cls-9" d="M215,231.26a13.39,13.39,0,0,1,3.72,1.45c1.66,1,3.57,1.18,5,2.8,1.79,2,4.88,11.27,4.45,14.64s-5.17,10-9.05,7.32-13.34-12.56-13.7-17.58-.7-8.22.73-10.64Z" transform="translate(-4.94 -11.47)" />
        <path
            class="cls-10"
            d="M287.13,342.55l-.33,1.27.81.32a3.55,3.55,0,0,0,1.52,1,5.3,5.3,0,0,1,1.54.25c.22.15,1.19,1,1,.5a7.17,7.17,0,0,0-1-1.84,3.13,3.13,0,0,0-1.88-1.16,8.55,8.55,0,0,0-1-.12A1.89,1.89,0,0,1,287.13,342.55Z"
            transform="translate(-4.94 -11.47)"
        />
        <path
            class="cls-10"
            d="M280.53,357.26l-.6,1.62a2.2,2.2,0,0,0,1.37.44,1.22,1.22,0,0,1,.7.33,1.45,1.45,0,0,0,1.54.36,3.64,3.64,0,0,0,1.62-.52c.41-.33.78-.72.36-.82s-.81.28-1.13.31-.39.08-.63-.22a5.3,5.3,0,0,0-1.36-1,4.91,4.91,0,0,0-1.36-.21A1.05,1.05,0,0,1,280.53,357.26Z"
            transform="translate(-4.94 -11.47)"
        />
        <path class="cls-10" d="M301.44,354.79s3.52,1.2,3.25,1.83a2.85,2.85,0,0,1-.8,1,5.77,5.77,0,0,0-1.93-.13,2.63,2.63,0,0,1-.68.27l-.89-1.85S301.3,355.25,301.44,354.79Z" transform="translate(-4.94 -11.47)" />
        <path class="cls-10" d="M307,347.21a3.73,3.73,0,0,1,1.88.5c.5.47.16,1.46-1,1.58,0,0-1,0-1.34,0h-.44l-.07-1.92S306.9,347.54,307,347.21Z" transform="translate(-4.94 -11.47)" />
        <path class="cls-10" d="M260.63,343.56a13.5,13.5,0,0,1,2.35-1.81c.81-.36.66-.65,1.14-.29s1.46-2.26,1.46-2.26l-.33-.2S260.44,341.47,260.63,343.56Z" transform="translate(-4.94 -11.47)" />
        <path
            class="cls-10"
            d="M266.18,339.62a19.13,19.13,0,0,1-1,2.23c-.26.32-.55.45-.19,1s0,.84-.42,1.14-1.82,1.26-1.82,1.26a.23.23,0,0,1,.37.11s.31-.58.74-.68a3.77,3.77,0,0,1,.82-.16c.16,0,.62.28.63.53s-.33.51-.33.51.61.83,1,.79.7-.55.8-.56a.76.76,0,0,1,.55.13c.76.45.91-3.47.2-4.87a.36.36,0,0,1-.55-.16A1.84,1.84,0,0,0,266.18,339.62Z"
            transform="translate(-4.94 -11.47)"
        />
    </g>
</svg>
